<?xml version="1.0" encoding="UTF-8"?>
<svg xmlns="http://www.w3.org/2000/svg" width="1400" height="840" viewBox="0 0 1400 840">
  <defs>
    <style>
      .title { font: 700 28px Arial, sans-serif; fill: #111; }
      .label { font: 700 18px Arial, sans-serif; fill: #111; }
      .text { font: 16px Arial, sans-serif; fill: #111; }
      .line { stroke: #111; stroke-width: 2.4; fill: none; }
      .shape { stroke: #111; stroke-width: 2.4; fill: #fff; }
    </style>
  </defs>

  <text x="700" y="42" text-anchor="middle" class="title">Figure 1. Overall Use Case Diagram of LYDO Connect</text>

  <rect x="360" y="85" width="680" height="650" rx="10" ry="10" class="shape"/>
  <text x="700" y="122" text-anchor="middle" class="label">LYDO Connect</text>

  <ellipse cx="700" cy="175" rx="145" ry="32" class="shape"/>
  <text x="700" y="181" text-anchor="middle" class="text">Access Account</text>

  <ellipse cx="700" cy="270" rx="175" ry="36" class="shape"/>
  <text x="700" y="265" text-anchor="middle" class="text">Browse Youth</text>
  <text x="700" y="286" text-anchor="middle" class="text">Information</text>

  <ellipse cx="700" cy="370" rx="205" ry="40" class="shape"/>
  <text x="700" y="364" text-anchor="middle" class="text">Participate and Manage</text>
  <text x="700" y="386" text-anchor="middle" class="text">Profile Services</text>

  <ellipse cx="700" cy="485" rx="235" ry="42" class="shape"/>
  <text x="700" y="478" text-anchor="middle" class="text">Access Transparency</text>
  <text x="700" y="500" text-anchor="middle" class="text">and Citizen Services</text>

  <ellipse cx="700" cy="595" rx="205" ry="38" class="shape"/>
  <text x="700" y="589" text-anchor="middle" class="text">Manage Records</text>
  <text x="700" y="611" text-anchor="middle" class="text">and Content</text>

  <ellipse cx="700" cy="685" rx="250" ry="38" class="shape"/>
  <text x="700" y="679" text-anchor="middle" class="text">Monitor Registrations</text>
  <text x="700" y="701" text-anchor="middle" class="text">and Accountability</text>

  <circle cx="110" cy="220" r="22" class="shape"/>
  <line x1="110" y1="242" x2="110" y2="310" class="line"/>
  <line x1="74" y1="268" x2="146" y2="268" class="line"/>
  <line x1="110" y1="310" x2="80" y2="360" class="line"/>
  <line x1="110" y1="310" x2="140" y2="360" class="line"/>
  <text x="110" y="394" text-anchor="middle" class="label">Youth User</text>

  <circle cx="110" cy="520" r="22" class="shape"/>
  <line x1="110" y1="542" x2="110" y2="610" class="line"/>
  <line x1="74" y1="568" x2="146" y2="568" class="line"/>
  <line x1="110" y1="610" x2="80" y2="660" class="line"/>
  <line x1="110" y1="610" x2="140" y2="660" class="line"/>
  <text x="110" y="694" text-anchor="middle" class="label">Citizen</text>

  <circle cx="1290" cy="230" r="22" class="shape"/>
  <line x1="1290" y1="252" x2="1290" y2="320" class="line"/>
  <line x1="1254" y1="278" x2="1326" y2="278" class="line"/>
  <line x1="1290" y1="320" x2="1260" y2="370" class="line"/>
  <line x1="1290" y1="320" x2="1320" y2="370" class="line"/>
  <text x="1290" y="404" text-anchor="middle" class="label">LYDO Administrator</text>

  <circle cx="1290" cy="520" r="22" class="shape"/>
  <line x1="1290" y1="542" x2="1290" y2="610" class="line"/>
  <line x1="1254" y1="568" x2="1326" y2="568" class="line"/>
  <line x1="1290" y1="610" x2="1260" y2="660" class="line"/>
  <line x1="1290" y1="610" x2="1320" y2="660" class="line"/>
  <text x="1290" y="694" text-anchor="middle" class="label">LYDO Staff / SK Officer</text>

  <line x1="132" y1="268" x2="250" y2="268" class="line"/>
  <line x1="250" y1="268" x2="555" y2="175" class="line"/>
  <line x1="250" y1="268" x2="525" y2="270" class="line"/>
  <line x1="250" y1="268" x2="495" y2="370" class="line"/>
  <line x1="250" y1="268" x2="465" y2="485" class="line"/>

  <line x1="132" y1="568" x2="250" y2="568" class="line"/>
  <line x1="250" y1="568" x2="525" y2="270" class="line"/>
  <line x1="250" y1="568" x2="465" y2="485" class="line"/>

  <line x1="1268" y1="278" x2="1150" y2="278" class="line"/>
  <line x1="1150" y1="278" x2="905" y2="595" class="line"/>
  <line x1="1150" y1="278" x2="950" y2="685" class="line"/>

  <line x1="1268" y1="568" x2="1150" y2="568" class="line"/>
  <line x1="1150" y1="568" x2="905" y2="595" class="line"/>
  <line x1="1150" y1="568" x2="950" y2="685" class="line"/>
</svg>
