<?xml version="1.0" encoding="UTF-8"?>
<svg xmlns="http://www.w3.org/2000/svg" width="1200" height="760" viewBox="0 0 1200 760">
  <defs>
    <style>
      .title { font: 700 28px Arial, sans-serif; fill: #111; }
      .label { font: 600 18px Arial, sans-serif; fill: #111; }
      .text { font: 16px Arial, sans-serif; fill: #111; }
      .small { font: italic 15px Arial, sans-serif; fill: #111; }
      .line { stroke: #111; stroke-width: 2.5; fill: none; }
      .shape { stroke: #111; stroke-width: 2.5; fill: #fff; }
    </style>
  </defs>

  <text x="600" y="42" text-anchor="middle" class="title">Figure 1. Overall Use Case Diagram of LYDO Connect</text>

  <rect x="280" y="90" width="640" height="580" rx="8" ry="8" class="shape"/>
  <text x="600" y="125" text-anchor="middle" class="label">LYDO Connect</text>

  <ellipse cx="600" cy="190" rx="145" ry="34" class="shape"/>
  <text x="600" y="196" text-anchor="middle" class="text">Access Account</text>

  <ellipse cx="600" cy="290" rx="175" ry="38" class="shape"/>
  <text x="600" y="286" text-anchor="middle" class="text">Browse Youth</text>
  <text x="600" y="306" text-anchor="middle" class="text">Information</text>

  <ellipse cx="600" cy="400" rx="200" ry="40" class="shape"/>
  <text x="600" y="395" text-anchor="middle" class="text">Participate in</text>
  <text x="600" y="416" text-anchor="middle" class="text">Programs and Events</text>

  <ellipse cx="600" cy="520" rx="210" ry="42" class="shape"/>
  <text x="600" y="514" text-anchor="middle" class="text">Access Transparency</text>
  <text x="600" y="536" text-anchor="middle" class="text">and Citizen Services</text>

  <ellipse cx="600" cy="620" rx="190" ry="38" class="shape"/>
  <text x="600" y="615" text-anchor="middle" class="text">Manage Administrative</text>
  <text x="600" y="636" text-anchor="middle" class="text">Records</text>

  <circle cx="110" cy="210" r="22" class="shape"/>
  <line x1="110" y1="232" x2="110" y2="300" class="line"/>
  <line x1="74" y1="258" x2="146" y2="258" class="line"/>
  <line x1="110" y1="300" x2="80" y2="350" class="line"/>
  <line x1="110" y1="300" x2="140" y2="350" class="line"/>
  <text x="110" y="382" text-anchor="middle" class="label">Youth User</text>

  <circle cx="110" cy="500" r="22" class="shape"/>
  <line x1="110" y1="522" x2="110" y2="590" class="line"/>
  <line x1="74" y1="548" x2="146" y2="548" class="line"/>
  <line x1="110" y1="590" x2="80" y2="640" class="line"/>
  <line x1="110" y1="590" x2="140" y2="640" class="line"/>
  <text x="110" y="672" text-anchor="middle" class="label">Citizen</text>

  <circle cx="1090" cy="220" r="22" class="shape"/>
  <line x1="1090" y1="242" x2="1090" y2="310" class="line"/>
  <line x1="1054" y1="268" x2="1126" y2="268" class="line"/>
  <line x1="1090" y1="310" x2="1060" y2="360" class="line"/>
  <line x1="1090" y1="310" x2="1120" y2="360" class="line"/>
  <text x="1090" y="392" text-anchor="middle" class="label">LYDO Administrator</text>

  <circle cx="1090" cy="500" r="22" class="shape"/>
  <line x1="1090" y1="522" x2="1090" y2="590" class="line"/>
  <line x1="1054" y1="548" x2="1126" y2="548" class="line"/>
  <line x1="1090" y1="590" x2="1060" y2="640" class="line"/>
  <line x1="1090" y1="590" x2="1120" y2="640" class="line"/>
  <text x="1090" y="672" text-anchor="middle" class="label">LYDO Staff / SK Officer</text>

  <line x1="132" y1="258" x2="455" y2="190" class="line"/>
  <line x1="132" y1="258" x2="425" y2="290" class="line"/>
  <line x1="132" y1="300" x2="400" y2="400" class="line"/>
  <line x1="132" y1="300" x2="390" y2="520" class="line"/>

  <line x1="132" y1="548" x2="425" y2="290" class="line"/>
  <line x1="132" y1="548" x2="390" y2="520" class="line"/>

  <line x1="900" y1="620" x2="1054" y2="268" class="line"/>
  <line x1="900" y1="620" x2="1054" y2="548" class="line"/>
</svg>
