<?xml version="1.0" encoding="UTF-8"?>
<svg xmlns="http://www.w3.org/2000/svg" width="1600" height="980" viewBox="0 0 1600 980">
  <defs>
    <style>
      .title { font: 700 28px Arial, sans-serif; fill: #111; }
      .label { font: 700 18px Arial, sans-serif; fill: #111; }
      .text { font: 16px Arial, sans-serif; fill: #111; }
      .small { font: italic 15px Arial, sans-serif; fill: #111; }
      .line { stroke: #111; stroke-width: 2.2; fill: none; }
      .shape { stroke: #111; stroke-width: 2.2; fill: #fff; }
      .include { stroke: #111; stroke-width: 2; stroke-dasharray: 10 8; fill: none; marker-end: url(#arrow); }
    </style>
    <marker id="arrow" markerWidth="12" markerHeight="12" refX="10" refY="6" orient="auto">
      <path d="M0,0 L12,6 L0,12 z" fill="#111"/>
    </marker>
  </defs>

  <text x="800" y="42" text-anchor="middle" class="title">Figure 3. Admin Use Case Diagram</text>

  <rect x="290" y="80" width="980" height="860" rx="10" ry="10" class="shape"/>
  <text x="780" y="118" text-anchor="middle" class="label">LYDO Connect - Admin Portal</text>

  <ellipse cx="780" cy="170" rx="170" ry="34" class="shape"/>
  <text x="780" y="162" text-anchor="middle" class="text">UC-02</text>
  <text x="780" y="183" text-anchor="middle" class="text">Log In</text>

  <ellipse cx="560" cy="330" rx="185" ry="36" class="shape"/>
  <text x="560" y="322" text-anchor="middle" class="text">UC-07</text>
  <text x="560" y="343" text-anchor="middle" class="text">Manage Youth Records</text>

  <ellipse cx="1020" cy="330" rx="235" ry="42" class="shape"/>
  <text x="1020" y="322" text-anchor="middle" class="text">UC-08</text>
  <text x="1020" y="344" text-anchor="middle" class="text">Manage Transparency and Financial Records</text>

  <ellipse cx="780" cy="560" rx="225" ry="40" class="shape"/>
  <text x="780" y="552" text-anchor="middle" class="text">UC-09</text>
  <text x="780" y="574" text-anchor="middle" class="text">Monitor Registrations and Retry Sync</text>

  <ellipse cx="780" cy="770" rx="235" ry="42" class="shape"/>
  <text x="780" y="762" text-anchor="middle" class="text">UC-10</text>
  <text x="780" y="784" text-anchor="middle" class="text">Manage Users, Roles, and Audit Logs</text>

  <ellipse cx="1110" cy="560" rx="150" ry="32" class="shape"/>
  <text x="1110" y="552" text-anchor="middle" class="text">Retry Failed</text>
  <text x="1110" y="573" text-anchor="middle" class="text">Sync</text>

  <ellipse cx="1110" cy="700" rx="165" ry="34" class="shape"/>
  <text x="1110" y="692" text-anchor="middle" class="text">Export Registration</text>
  <text x="1110" y="713" text-anchor="middle" class="text">Data</text>

  <ellipse cx="1110" cy="840" rx="185" ry="36" class="shape"/>
  <text x="1110" y="832" text-anchor="middle" class="text">Preview External</text>
  <text x="1110" y="854" text-anchor="middle" class="text">Attendance Sheet</text>

  <circle cx="90" cy="260" r="22" class="shape"/>
  <line x1="90" y1="282" x2="90" y2="350" class="line"/>
  <line x1="54" y1="308" x2="126" y2="308" class="line"/>
  <line x1="90" y1="350" x2="60" y2="400" class="line"/>
  <line x1="90" y1="350" x2="120" y2="400" class="line"/>
  <text x="90" y="434" text-anchor="middle" class="label">LYDO Administrator</text>

  <circle cx="90" cy="620" r="22" class="shape"/>
  <line x1="90" y1="642" x2="90" y2="710" class="line"/>
  <line x1="54" y1="668" x2="126" y2="668" class="line"/>
  <line x1="90" y1="710" x2="60" y2="760" class="line"/>
  <line x1="90" y1="710" x2="120" y2="760" class="line"/>
  <text x="90" y="794" text-anchor="middle" class="label">LYDO Staff / SK Officer</text>

  <circle cx="1490" cy="190" r="22" class="shape"/>
  <line x1="1490" y1="212" x2="1490" y2="280" class="line"/>
  <line x1="1454" y1="238" x2="1526" y2="238" class="line"/>
  <line x1="1490" y1="280" x2="1460" y2="330" class="line"/>
  <line x1="1490" y1="280" x2="1520" y2="330" class="line"/>
  <text x="1490" y="360" text-anchor="middle" class="small">&lt;&lt;service&gt;&gt;</text>
  <text x="1490" y="382" text-anchor="middle" class="label">Authentication</text>

  <circle cx="1490" cy="780" r="22" class="shape"/>
  <line x1="1490" y1="802" x2="1490" y2="870" class="line"/>
  <line x1="1454" y1="828" x2="1526" y2="828" class="line"/>
  <line x1="1490" y1="870" x2="1460" y2="920" class="line"/>
  <line x1="1490" y1="870" x2="1520" y2="920" class="line"/>
  <text x="1490" y="952" text-anchor="middle" class="label">Google Form / Google Sheet</text>

  <line x1="112" y1="308" x2="610" y2="170" class="line"/>
  <line x1="112" y1="308" x2="375" y2="330" class="line"/>
  <line x1="112" y1="308" x2="785" y2="330" class="line"/>
  <line x1="112" y1="330" x2="555" y2="560" class="line"/>
  <line x1="112" y1="350" x2="545" y2="770" class="line"/>

  <line x1="112" y1="668" x2="610" y2="170" class="line"/>
  <line x1="112" y1="668" x2="375" y2="330" class="line"/>
  <line x1="112" y1="668" x2="785" y2="330" class="line"/>
  <line x1="112" y1="668" x2="555" y2="560" class="line"/>

  <line x1="1468" y1="238" x2="950" y2="170" class="line"/>
  <line x1="1468" y1="828" x2="1295" y2="840" class="line"/>

  <line x1="1005" y1="560" x2="960" y2="560" class="include"/>
  <text x="1030" y="535" text-anchor="middle" class="small">&lt;&lt;include&gt;&gt;</text>

  <line x1="920" y1="590" x2="1035" y2="680" class="include"/>
  <text x="980" y="650" text-anchor="middle" class="small">&lt;&lt;extend&gt;&gt;</text>

  <line x1="930" y1="595" x2="1020" y2="820" class="include"/>
  <text x="990" y="735" text-anchor="middle" class="small">&lt;&lt;extend&gt;&gt;</text>
</svg>
