<?xml version="1.0" encoding="UTF-8"?>
<svg xmlns="http://www.w3.org/2000/svg" width="1500" height="980" viewBox="0 0 1500 980">
  <defs>
    <style>
      .title { font: 700 28px Arial, sans-serif; fill: #111; }
      .label { font: 700 18px Arial, sans-serif; fill: #111; }
      .text { font: 16px Arial, sans-serif; fill: #111; }
      .small { font: italic 15px Arial, sans-serif; fill: #111; }
      .line { stroke: #111; stroke-width: 2.2; fill: none; }
      .shape { stroke: #111; stroke-width: 2.2; fill: #fff; }
    </style>
  </defs>

  <text x="750" y="42" text-anchor="middle" class="title">Figure 1. Overall Use Case Diagram of LYDO Connect</text>

  <rect x="320" y="80" width="860" height="850" rx="10" ry="10" class="shape"/>
  <text x="750" y="118" text-anchor="middle" class="label">LYDO Connect</text>

  <ellipse cx="560" cy="170" rx="165" ry="34" class="shape"/>
  <text x="560" y="162" text-anchor="middle" class="text">UC-01</text>
  <text x="560" y="183" text-anchor="middle" class="text">Sign Up</text>

  <ellipse cx="560" cy="290" rx="165" ry="34" class="shape"/>
  <text x="560" y="282" text-anchor="middle" class="text">UC-02</text>
  <text x="560" y="303" text-anchor="middle" class="text">Log In</text>

  <ellipse cx="560" cy="420" rx="210" ry="42" class="shape"/>
  <text x="560" y="412" text-anchor="middle" class="text">UC-03</text>
  <text x="560" y="434" text-anchor="middle" class="text">Browse and View Public Information</text>

  <ellipse cx="560" cy="560" rx="205" ry="40" class="shape"/>
  <text x="560" y="552" text-anchor="middle" class="text">UC-04</text>
  <text x="560" y="574" text-anchor="middle" class="text">Register for Program or Event</text>

  <ellipse cx="560" cy="700" rx="235" ry="42" class="shape"/>
  <text x="560" y="692" text-anchor="middle" class="text">UC-05</text>
  <text x="560" y="714" text-anchor="middle" class="text">Manage Profile and Participation History</text>

  <ellipse cx="930" cy="170" rx="205" ry="40" class="shape"/>
  <text x="930" y="162" text-anchor="middle" class="text">UC-06</text>
  <text x="930" y="184" text-anchor="middle" class="text">Submit and Track Citizen Ticket</text>

  <ellipse cx="930" cy="320" rx="175" ry="36" class="shape"/>
  <text x="930" y="312" text-anchor="middle" class="text">UC-07</text>
  <text x="930" y="333" text-anchor="middle" class="text">Manage Youth Records</text>

  <ellipse cx="930" cy="470" rx="230" ry="42" class="shape"/>
  <text x="930" y="462" text-anchor="middle" class="text">UC-08</text>
  <text x="930" y="484" text-anchor="middle" class="text">Manage Transparency and Financial Records</text>

  <ellipse cx="930" cy="620" rx="220" ry="40" class="shape"/>
  <text x="930" y="612" text-anchor="middle" class="text">UC-09</text>
  <text x="930" y="634" text-anchor="middle" class="text">Monitor Registrations and Retry Sync</text>

  <ellipse cx="930" cy="770" rx="240" ry="42" class="shape"/>
  <text x="930" y="762" text-anchor="middle" class="text">UC-10</text>
  <text x="930" y="784" text-anchor="middle" class="text">Manage Users, Roles, and Audit Logs</text>

  <circle cx="95" cy="190" r="22" class="shape"/>
  <line x1="95" y1="212" x2="95" y2="280" class="line"/>
  <line x1="59" y1="238" x2="131" y2="238" class="line"/>
  <line x1="95" y1="280" x2="65" y2="330" class="line"/>
  <line x1="95" y1="280" x2="125" y2="330" class="line"/>
  <text x="95" y="364" text-anchor="middle" class="label">Youth User</text>

  <circle cx="95" cy="450" r="22" class="shape"/>
  <line x1="95" y1="472" x2="95" y2="540" class="line"/>
  <line x1="59" y1="498" x2="131" y2="498" class="line"/>
  <line x1="95" y1="540" x2="65" y2="590" class="line"/>
  <line x1="95" y1="540" x2="125" y2="590" class="line"/>
  <text x="95" y="624" text-anchor="middle" class="label">Citizen</text>

  <circle cx="95" cy="720" r="22" class="shape"/>
  <line x1="95" y1="742" x2="95" y2="810" class="line"/>
  <line x1="59" y1="768" x2="131" y2="768" class="line"/>
  <line x1="95" y1="810" x2="65" y2="860" class="line"/>
  <line x1="95" y1="810" x2="125" y2="860" class="line"/>
  <text x="95" y="894" text-anchor="middle" class="label">Public Viewer</text>

  <circle cx="1410" cy="140" r="22" class="shape"/>
  <line x1="1410" y1="162" x2="1410" y2="230" class="line"/>
  <line x1="1374" y1="188" x2="1446" y2="188" class="line"/>
  <line x1="1410" y1="230" x2="1380" y2="280" class="line"/>
  <line x1="1410" y1="230" x2="1440" y2="280" class="line"/>
  <text x="1410" y="310" text-anchor="middle" class="small">&lt;&lt;service&gt;&gt;</text>
  <text x="1410" y="332" text-anchor="middle" class="label">Authentication</text>

  <circle cx="1410" cy="410" r="22" class="shape"/>
  <line x1="1410" y1="432" x2="1410" y2="500" class="line"/>
  <line x1="1374" y1="458" x2="1446" y2="458" class="line"/>
  <line x1="1410" y1="500" x2="1380" y2="550" class="line"/>
  <line x1="1410" y1="500" x2="1440" y2="550" class="line"/>
  <text x="1410" y="584" text-anchor="middle" class="label">LYDO Administrator</text>

  <circle cx="1410" cy="660" r="22" class="shape"/>
  <line x1="1410" y1="682" x2="1410" y2="750" class="line"/>
  <line x1="1374" y1="708" x2="1446" y2="708" class="line"/>
  <line x1="1410" y1="750" x2="1380" y2="800" class="line"/>
  <line x1="1410" y1="750" x2="1440" y2="800" class="line"/>
  <text x="1410" y="834" text-anchor="middle" class="label">LYDO Staff / SK Officer</text>

  <circle cx="1410" cy="890" r="22" class="shape"/>
  <line x1="1410" y1="912" x2="1410" y2="980" class="line"/>
  <line x1="1374" y1="938" x2="1446" y2="938" class="line"/>
  <line x1="1410" y1="980" x2="1380" y2="1030" class="line"/>
  <line x1="1410" y1="980" x2="1440" y2="1030" class="line"/>
  <text x="1410" y="1060" text-anchor="middle" class="label">Google Form / Google Sheet</text>

  <line x1="117" y1="238" x2="395" y2="170" class="line"/>
  <line x1="117" y1="238" x2="395" y2="290" class="line"/>
  <line x1="117" y1="260" x2="350" y2="420" class="line"/>
  <line x1="117" y1="280" x2="355" y2="560" class="line"/>
  <line x1="117" y1="300" x2="325" y2="700" class="line"/>
  <line x1="117" y1="270" x2="725" y2="170" class="line"/>

  <line x1="117" y1="498" x2="395" y2="170" class="line"/>
  <line x1="117" y1="498" x2="395" y2="290" class="line"/>
  <line x1="117" y1="498" x2="350" y2="420" class="line"/>
  <line x1="117" y1="520" x2="725" y2="170" class="line"/>

  <line x1="117" y1="768" x2="350" y2="420" class="line"/>

  <line x1="1388" y1="188" x2="725" y2="170" class="line"/>
  <line x1="1388" y1="188" x2="725" y2="290" class="line"/>

  <line x1="1388" y1="458" x2="1105" y2="320" class="line"/>
  <line x1="1388" y1="458" x2="1160" y2="470" class="line"/>
  <line x1="1388" y1="458" x2="1150" y2="620" class="line"/>
  <line x1="1388" y1="458" x2="1170" y2="770" class="line"/>

  <line x1="1388" y1="708" x2="1105" y2="320" class="line"/>
  <line x1="1388" y1="708" x2="1160" y2="470" class="line"/>
  <line x1="1388" y1="708" x2="1150" y2="620" class="line"/>

  <line x1="1388" y1="938" x2="1150" y2="620" class="line"/>
</svg>
