<svg xmlns="http://www.w3.org/2000/svg" width="1180" height="820" viewBox="0 0 1180 820" role="img" aria-labelledby="title desc">
  <title id="title">General Use Case Diagram of LYDO Connect</title>
  <desc id="desc">Use case diagram showing Public User, Youth User, LYDO Staff, and LYDO Super Admin interactions with the LYDO Connect System.</desc>
  <defs>
    <style>
      .boundary { fill: #ffffff; stroke: #1f2937; stroke-width: 2; }
      .actor-line { stroke: #111827; stroke-width: 2; fill: none; stroke-linecap: round; }
      .assoc { stroke: #111827; stroke-width: 1.5; fill: none; }
      .include { stroke: #111827; stroke-width: 1.2; stroke-dasharray: 6 5; fill: none; marker-end: url(#arrow); }
      .extend { stroke: #2563eb; stroke-width: 1.2; stroke-dasharray: 6 5; fill: none; marker-end: url(#blueArrow); }
      .usecase { fill: #64c7ec; stroke: #0f172a; stroke-width: 1.5; }
      .support { fill: #ffffff; stroke: #0f172a; stroke-width: 1.2; }
      .system-title { font: 700 16px Arial, sans-serif; fill: #111827; }
      .label { font: 13px Arial, sans-serif; fill: #111827; text-anchor: middle; dominant-baseline: middle; }
      .small { font: 11px Arial, sans-serif; fill: #111827; text-anchor: middle; dominant-baseline: middle; }
      .rel { font: 11px Arial, sans-serif; fill: #111827; text-anchor: middle; }
      .rel-blue { font: 11px Arial, sans-serif; fill: #2563eb; text-anchor: middle; }
    </style>
    <marker id="arrow" markerWidth="8" markerHeight="8" refX="8" refY="4" orient="auto">
      <path d="M 0 0 L 8 4 L 0 8 z" fill="#111827" />
    </marker>
    <marker id="blueArrow" markerWidth="8" markerHeight="8" refX="8" refY="4" orient="auto">
      <path d="M 0 0 L 8 4 L 0 8 z" fill="#2563eb" />
    </marker>
  </defs>

  <rect x="145" y="20" width="890" height="780" class="boundary" />
  <text x="590" y="45" class="system-title" text-anchor="middle">LYDO Connect System</text>

  <!-- Actors -->
  <g transform="translate(65 560)">
    <circle cx="0" cy="-44" r="10" fill="#9bdaf5" stroke="#111827" stroke-width="1.5" />
    <path d="M 0 -34 L 0 10 M -30 -18 L 30 -18 M 0 10 L -25 45 M 0 10 L 25 45" class="actor-line" />
    <text x="0" y="70" class="label">Public User</text>
  </g>
  <g transform="translate(65 325)">
    <circle cx="0" cy="-44" r="10" fill="#9bdaf5" stroke="#111827" stroke-width="1.5" />
    <path d="M 0 -34 L 0 10 M -30 -18 L 30 -18 M 0 10 L -25 45 M 0 10 L 25 45" class="actor-line" />
    <text x="0" y="70" class="label">Youth User</text>
  </g>
  <g transform="translate(1115 390)">
    <circle cx="0" cy="-44" r="10" fill="#9bdaf5" stroke="#111827" stroke-width="1.5" />
    <path d="M 0 -34 L 0 10 M -30 -18 L 30 -18 M 0 10 L -25 45 M 0 10 L 25 45" class="actor-line" />
    <text x="0" y="70" class="label">LYDO Staff</text>
  </g>
  <g transform="translate(1115 145)">
    <circle cx="0" cy="-44" r="10" fill="#9bdaf5" stroke="#111827" stroke-width="1.5" />
    <path d="M 0 -34 L 0 10 M -30 -18 L 30 -18 M 0 10 L -25 45 M 0 10 L 25 45" class="actor-line" />
    <text x="0" y="70" class="label">
      <tspan x="0" dy="0">LYDO Super</tspan>
      <tspan x="0" dy="15">Admin</tspan>
    </text>
  </g>

  <!-- Main use cases: left side -->
  <ellipse cx="255" cy="125" rx="62" ry="24" class="usecase" />
  <text x="255" y="125" class="label">Login</text>
  <ellipse cx="255" cy="190" rx="62" ry="26" class="usecase" />
  <text x="255" y="190" class="label">Manage Account</text>
  <ellipse cx="255" cy="290" rx="62" ry="28" class="usecase" />
  <text x="255" y="290" class="small">
    <tspan x="255" dy="-6">Register for</tspan>
    <tspan x="255" dy="14">Programs/Events</tspan>
  </text>
  <ellipse cx="255" cy="395" rx="62" ry="26" class="usecase" />
  <text x="255" y="395" class="label">Track Participation</text>
  <ellipse cx="255" cy="505" rx="66" ry="30" class="usecase" />
  <text x="255" y="505" class="small">
    <tspan x="255" dy="-6">Submit Service</tspan>
    <tspan x="255" dy="14">Requests</tspan>
  </text>
  <ellipse cx="255" cy="650" rx="62" ry="24" class="usecase" />
  <text x="255" y="650" class="label">Register</text>
  <ellipse cx="255" cy="720" rx="66" ry="26" class="usecase" />
  <text x="255" y="720" class="label">Browse Public Portal</text>

  <!-- Supporting use cases: center -->
  <ellipse cx="440" cy="75" rx="65" ry="27" class="support" />
  <text x="440" y="75" class="small">
    <tspan x="440" dy="-6">Authenticate</tspan>
    <tspan x="440" dy="14">User</tspan>
  </text>
  <ellipse cx="520" cy="125" rx="78" ry="26" class="support" />
  <text x="520" y="125" class="small">
    <tspan x="520" dy="-6">Two-Factor</tspan>
    <tspan x="520" dy="14">Authentication</tspan>
  </text>
  <ellipse cx="440" cy="175" rx="62" ry="24" class="support" />
  <text x="440" y="175" class="label">Login Error</text>
  <ellipse cx="435" cy="250" rx="66" ry="26" class="support" />
  <text x="435" y="250" class="small">
    <tspan x="435" dy="-6">Submit</tspan>
    <tspan x="435" dy="14">Registration</tspan>
  </text>
  <ellipse cx="440" cy="325" rx="62" ry="24" class="support" />
  <text x="440" y="325" class="label">Registration Error</text>
  <ellipse cx="440" cy="385" rx="70" ry="26" class="support" />
  <text x="440" y="385" class="small">
    <tspan x="440" dy="-6">View Participation</tspan>
    <tspan x="440" dy="14">Status</tspan>
  </text>
  <ellipse cx="490" cy="430" rx="73" ry="26" class="support" />
  <text x="490" y="430" class="small">
    <tspan x="490" dy="-6">View Participation</tspan>
    <tspan x="490" dy="14">History</tspan>
  </text>
  <ellipse cx="440" cy="495" rx="62" ry="24" class="support" />
  <text x="440" y="495" class="label">Submit Request</text>
  <ellipse cx="500" cy="550" rx="70" ry="26" class="support" />
  <text x="500" y="550" class="small">
    <tspan x="500" dy="-6">Receive Status</tspan>
    <tspan x="500" dy="14">Update</tspan>
  </text>
  <ellipse cx="470" cy="605" rx="68" ry="24" class="support" />
  <text x="470" y="605" class="label">Submission Error</text>
  <ellipse cx="435" cy="650" rx="67" ry="26" class="support" />
  <text x="435" y="650" class="small">
    <tspan x="435" dy="-6">Validate</tspan>
    <tspan x="435" dy="14">Credentials</tspan>
  </text>
  <ellipse cx="525" cy="690" rx="64" ry="26" class="support" />
  <text x="525" y="690" class="small">
    <tspan x="525" dy="-6">Email</tspan>
    <tspan x="525" dy="14">Verification</tspan>
  </text>

  <!-- Main use cases: right side -->
  <ellipse cx="885" cy="105" rx="82" ry="28" class="usecase" />
  <text x="885" y="105" class="small">
    <tspan x="885" dy="-6">Manage User</tspan>
    <tspan x="885" dy="14">Accounts and Roles</tspan>
  </text>
  <ellipse cx="885" cy="175" rx="68" ry="25" class="usecase" />
  <text x="885" y="175" class="label">Review Audit Logs</text>
  <ellipse cx="885" cy="275" rx="70" ry="26" class="usecase" />
  <text x="885" y="275" class="small">
    <tspan x="885" dy="-6">Manage Public</tspan>
    <tspan x="885" dy="14">Portal Content</tspan>
  </text>
  <ellipse cx="885" cy="350" rx="70" ry="26" class="usecase" />
  <text x="885" y="350" class="small">
    <tspan x="885" dy="-6">Manage</tspan>
    <tspan x="885" dy="14">Programs/Events</tspan>
  </text>
  <ellipse cx="885" cy="430" rx="68" ry="25" class="usecase" />
  <text x="885" y="430" class="label">Monitor Participation</text>
  <ellipse cx="885" cy="500" rx="76" ry="26" class="usecase" />
  <text x="885" y="500" class="small">
    <tspan x="885" dy="-6">Manage Participation</tspan>
    <tspan x="885" dy="14">Records</tspan>
  </text>
  <ellipse cx="885" cy="585" rx="72" ry="26" class="usecase" />
  <text x="885" y="585" class="label">Generate Reports</text>
  <ellipse cx="885" cy="690" rx="78" ry="28" class="usecase" />
  <text x="885" y="690" class="small">
    <tspan x="885" dy="-6">Manage</tspan>
    <tspan x="885" dy="14">Service Requests</tspan>
  </text>

  <!-- Supporting use cases: admin side -->
  <ellipse cx="720" cy="70" rx="70" ry="26" class="support" />
  <text x="720" y="70" class="small">
    <tspan x="720" dy="-6">Create/Update</tspan>
    <tspan x="720" dy="14">User Account</tspan>
  </text>
  <ellipse cx="650" cy="120" rx="58" ry="24" class="support" />
  <text x="650" y="120" class="label">Assign Role</text>
  <ellipse cx="720" cy="565" rx="61" ry="24" class="support" />
  <text x="720" y="565" class="label">Select Report Type</text>
  <ellipse cx="665" cy="615" rx="62" ry="24" class="support" />
  <text x="665" y="615" class="label">Retrieve Data</text>
  <ellipse cx="720" cy="655" rx="62" ry="24" class="support" />
  <text x="720" y="655" class="label">Review Request</text>
  <ellipse cx="650" cy="705" rx="62" ry="24" class="support" />
  <text x="650" y="705" class="label">Respond to Request</text>
  <ellipse cx="720" cy="755" rx="62" ry="24" class="support" />
  <text x="720" y="755" class="label">Evaluate Request</text>

  <!-- Actor associations -->
  <path d="M 95 307 C 125 307 145 125 193 125" class="assoc" />
  <path d="M 95 307 C 130 307 145 190 193 190" class="assoc" />
  <path d="M 95 307 C 135 307 150 290 193 290" class="assoc" />
  <path d="M 95 307 C 135 350 150 395 193 395" class="assoc" />
  <path d="M 95 307 C 125 420 150 505 189 505" class="assoc" />
  <path d="M 95 542 C 130 620 150 650 193 650" class="assoc" />
  <path d="M 95 542 C 130 690 150 720 189 720" class="assoc" />
  <path d="M 1085 127 C 1045 120 1000 105 967 105" class="assoc" />
  <path d="M 1085 127 C 1045 145 990 175 953 175" class="assoc" />
  <path d="M 1085 372 C 1045 350 995 275 955 275" class="assoc" />
  <path d="M 1085 372 C 1045 365 995 350 955 350" class="assoc" />
  <path d="M 1085 372 C 1045 395 995 430 953 430" class="assoc" />
  <path d="M 1085 372 C 1045 445 1000 500 961 500" class="assoc" />
  <path d="M 1085 372 C 1045 510 1000 585 957 585" class="assoc" />
  <path d="M 1085 372 C 1045 615 1000 690 963 690" class="assoc" />

  <!-- Include/extend relationships -->
  <path d="M 317 125 L 382 82" class="include" />
  <text x="347" y="94" class="rel">&lt;&lt;include&gt;&gt;</text>
  <path d="M 317 125 L 442 125" class="extend" />
  <text x="378" y="114" class="rel-blue">&lt;&lt;extend&gt;&gt;</text>
  <path d="M 317 125 L 382 168" class="extend" />
  <text x="348" y="162" class="rel-blue">&lt;&lt;extend&gt;&gt;</text>

  <path d="M 317 290 L 375 255" class="include" />
  <text x="343" y="260" class="rel">&lt;&lt;include&gt;&gt;</text>
  <path d="M 317 290 L 380 320" class="extend" />
  <text x="348" y="316" class="rel-blue">&lt;&lt;extend&gt;&gt;</text>

  <path d="M 317 395 L 372 385" class="include" />
  <path d="M 317 395 L 421 427" class="include" />
  <text x="350" y="379" class="rel">&lt;&lt;include&gt;&gt;</text>
  <text x="363" y="424" class="rel">&lt;&lt;include&gt;&gt;</text>

  <path d="M 321 505 L 379 497" class="include" />
  <path d="M 321 505 L 435 548" class="extend" />
  <path d="M 321 505 L 405 600" class="extend" />
  <text x="354" y="488" class="rel">&lt;&lt;include&gt;&gt;</text>
  <text x="371" y="540" class="rel-blue">&lt;&lt;extend&gt;&gt;</text>
  <text x="365" y="585" class="rel-blue">&lt;&lt;extend&gt;&gt;</text>

  <path d="M 317 650 L 370 650" class="include" />
  <path d="M 317 650 L 463 688" class="include" />
  <path d="M 317 650 L 384 330" class="extend" />
  <text x="346" y="638" class="rel">&lt;&lt;include&gt;&gt;</text>
  <text x="387" y="678" class="rel">&lt;&lt;include&gt;&gt;</text>
  <text x="345" y="492" class="rel-blue">&lt;&lt;extend&gt;&gt;</text>

  <path d="M 817 105 L 770 76" class="include" />
  <path d="M 817 105 L 708 120" class="include" />
  <text x="788" y="82" class="rel">&lt;&lt;include&gt;&gt;</text>
  <text x="765" y="118" class="rel">&lt;&lt;include&gt;&gt;</text>

  <path d="M 827 585 L 781 568" class="include" />
  <path d="M 827 585 L 727 612" class="include" />
  <text x="802" y="565" class="rel">&lt;&lt;include&gt;&gt;</text>
  <text x="777" y="610" class="rel">&lt;&lt;include&gt;&gt;</text>

  <path d="M 820 690 L 780 658" class="include" />
  <path d="M 820 690 L 712 704" class="include" />
  <path d="M 820 690 L 780 752" class="include" />
  <text x="795" y="664" class="rel">&lt;&lt;include&gt;&gt;</text>
  <text x="766" y="702" class="rel">&lt;&lt;include&gt;&gt;</text>
  <text x="795" y="744" class="rel">&lt;&lt;include&gt;&gt;</text>
</svg>
