<?xml version="1.0" encoding="UTF-8"?>
<svg xmlns="http://www.w3.org/2000/svg" width="1800" height="1020" viewBox="0 0 1800 1020">
  <defs>
    <style>
      .title { font: 700 28px Arial, sans-serif; fill: #111; }
      .system { font: 700 22px Arial, sans-serif; fill: #111; }
      .label { font: 700 18px Arial, sans-serif; fill: #111; }
      .text { font: 16px Arial, sans-serif; fill: #111; }
      .small { font: italic 15px Arial, sans-serif; fill: #111; }
      .shape { fill: #fff; stroke: #111; stroke-width: 2.3; }
      .dashedShape { fill: #fff; stroke: #111; stroke-width: 2.3; stroke-dasharray: 12 8; }
      .line { fill: none; stroke: #111; stroke-width: 2.3; stroke-linecap: round; }
      .dashed { fill: none; stroke: #111; stroke-width: 2.1; stroke-dasharray: 11 8; marker-end: url(#arrow); }
    </style>
    <marker id="arrow" markerWidth="12" markerHeight="12" refX="10" refY="6" orient="auto">
      <path d="M0,0 L12,6 L0,12 z" fill="#111"/>
    </marker>
  </defs>

  <rect width="1800" height="1020" fill="#fff"/>

  <text x="900" y="46" text-anchor="middle" class="title">Figure 13. Use Case Diagram of Manage Requests and Feedback</text>
  <text x="900" y="74" text-anchor="middle" class="small">Planned Future Extension</text>

  <rect x="410" y="100" width="980" height="800" rx="12" ry="12" class="dashedShape"/>
  <text x="900" y="138" text-anchor="middle" class="system">LYDO Connect</text>

  <ellipse cx="900" cy="220" rx="275" ry="46" class="dashedShape"/>
  <text x="900" y="213" text-anchor="middle" class="text">UC-12</text>
  <text x="900" y="236" text-anchor="middle" class="text">Manage Requests and Feedback</text>

  <ellipse cx="680" cy="460" rx="195" ry="36" class="shape"/>
  <text x="680" y="453" text-anchor="middle" class="text">Review Submitted Requests</text>

  <ellipse cx="1120" cy="460" rx="180" ry="36" class="shape"/>
  <text x="1120" y="453" text-anchor="middle" class="text">Update Request Status</text>

  <ellipse cx="680" cy="740" rx="145" ry="34" class="shape"/>
  <text x="680" y="733" text-anchor="middle" class="text">Assign Request</text>

  <ellipse cx="1120" cy="740" rx="130" ry="34" class="shape"/>
  <text x="1120" y="733" text-anchor="middle" class="text">Send Response</text>

  <circle cx="110" cy="290" r="22" class="shape"/>
  <line x1="110" y1="312" x2="110" y2="382" class="line"/>
  <line x1="74" y1="338" x2="146" y2="338" class="line"/>
  <line x1="110" y1="382" x2="80" y2="432" class="line"/>
  <line x1="110" y1="382" x2="140" y2="432" class="line"/>
  <text x="110" y="466" text-anchor="middle" class="label">LYDO</text>
  <text x="110" y="490" text-anchor="middle" class="label">Administrator</text>

  <circle cx="1690" cy="290" r="22" class="shape"/>
  <line x1="1690" y1="312" x2="1690" y2="382" class="line"/>
  <line x1="1654" y1="338" x2="1726" y2="338" class="line"/>
  <line x1="1690" y1="382" x2="1660" y2="432" class="line"/>
  <line x1="1690" y1="382" x2="1720" y2="432" class="line"/>
  <text x="1690" y="466" text-anchor="middle" class="label">LYDO Staff /</text>
  <text x="1690" y="490" text-anchor="middle" class="label">SK Officer</text>

  <line x1="146" y1="338" x2="625" y2="220" class="line"/>
  <line x1="1654" y1="338" x2="1175" y2="220" class="line"/>

  <line x1="815" y1="264" x2="735" y2="424" class="dashed"/>
  <text x="772" y="352" text-anchor="middle" class="small">&lt;&lt;include&gt;&gt;</text>

  <line x1="985" y1="264" x2="1065" y2="424" class="dashed"/>
  <text x="1030" y="352" text-anchor="middle" class="small">&lt;&lt;include&gt;&gt;</text>

  <line x1="680" y1="706" x2="845" y2="264" class="dashed"/>
  <text x="744" y="608" text-anchor="middle" class="small">&lt;&lt;extend&gt;&gt;</text>

  <line x1="1120" y1="706" x2="955" y2="264" class="dashed"/>
  <text x="1058" y="608" text-anchor="middle" class="small">&lt;&lt;extend&gt;&gt;</text>
</svg>
