<?xml version="1.0" encoding="UTF-8"?>
<svg xmlns="http://www.w3.org/2000/svg" width="1700" height="980" viewBox="0 0 1700 980">
  <defs>
    <style>
      .title { font: 700 28px Arial, sans-serif; fill: #111; }
      .system { font: 700 22px Arial, sans-serif; fill: #111; }
      .label { font: 700 18px Arial, sans-serif; fill: #111; }
      .text { font: 16px Arial, sans-serif; fill: #111; }
      .small { font: italic 15px Arial, sans-serif; fill: #111; }
      .shape { fill: #fff; stroke: #111; stroke-width: 2.3; }
      .line { fill: none; stroke: #111; stroke-width: 2.3; stroke-linecap: round; }
      .dashed { fill: none; stroke: #111; stroke-width: 2.1; stroke-dasharray: 11 8; marker-end: url(#arrow); }
    </style>
    <marker id="arrow" markerWidth="12" markerHeight="12" refX="10" refY="6" orient="auto">
      <path d="M0,0 L12,6 L0,12 z" fill="#111"/>
    </marker>
  </defs>

  <rect width="1700" height="980" fill="#fff"/>

  <text x="850" y="46" text-anchor="middle" class="title">Figure 2. Use Case Diagram of Log In</text>

  <rect x="390" y="100" width="920" height="760" rx="12" ry="12" class="shape"/>
  <text x="850" y="138" text-anchor="middle" class="system">LYDO Connect</text>

  <ellipse cx="850" cy="210" rx="180" ry="44" class="shape"/>
  <text x="850" y="203" text-anchor="middle" class="text">UC-02</text>
  <text x="850" y="226" text-anchor="middle" class="text">Log In</text>

  <ellipse cx="660" cy="520" rx="190" ry="36" class="shape"/>
  <text x="660" y="513" text-anchor="middle" class="text">Validate Credentials</text>

  <ellipse cx="1045" cy="520" rx="205" ry="36" class="shape"/>
  <text x="1045" y="513" text-anchor="middle" class="text">Redirect by User Role</text>

  <circle cx="110" cy="190" r="22" class="shape"/>
  <line x1="110" y1="212" x2="110" y2="282" class="line"/>
  <line x1="74" y1="238" x2="146" y2="238" class="line"/>
  <line x1="110" y1="282" x2="80" y2="332" class="line"/>
  <line x1="110" y1="282" x2="140" y2="332" class="line"/>
  <text x="110" y="366" text-anchor="middle" class="label">Youth User</text>

  <circle cx="110" cy="470" r="22" class="shape"/>
  <line x1="110" y1="492" x2="110" y2="562" class="line"/>
  <line x1="74" y1="518" x2="146" y2="518" class="line"/>
  <line x1="110" y1="562" x2="80" y2="612" class="line"/>
  <line x1="110" y1="562" x2="140" y2="612" class="line"/>
  <text x="110" y="646" text-anchor="middle" class="label">Citizen</text>

  <circle cx="1590" cy="190" r="22" class="shape"/>
  <line x1="1590" y1="212" x2="1590" y2="282" class="line"/>
  <line x1="1554" y1="238" x2="1626" y2="238" class="line"/>
  <line x1="1590" y1="282" x2="1560" y2="332" class="line"/>
  <line x1="1590" y1="282" x2="1620" y2="332" class="line"/>
  <text x="1590" y="366" text-anchor="middle" class="small">&lt;&lt;service&gt;&gt;</text>
  <text x="1590" y="388" text-anchor="middle" class="label">Authentication</text>

  <circle cx="1590" cy="470" r="22" class="shape"/>
  <line x1="1590" y1="492" x2="1590" y2="562" class="line"/>
  <line x1="1554" y1="518" x2="1626" y2="518" class="line"/>
  <line x1="1590" y1="562" x2="1560" y2="612" class="line"/>
  <line x1="1590" y1="562" x2="1620" y2="612" class="line"/>
  <text x="1590" y="646" text-anchor="middle" class="label">LYDO</text>
  <text x="1590" y="670" text-anchor="middle" class="label">Administrator</text>

  <circle cx="1590" cy="730" r="22" class="shape"/>
  <line x1="1590" y1="752" x2="1590" y2="822" class="line"/>
  <line x1="1554" y1="778" x2="1626" y2="778" class="line"/>
  <line x1="1590" y1="822" x2="1560" y2="872" class="line"/>
  <line x1="1590" y1="822" x2="1620" y2="872" class="line"/>
  <text x="1590" y="906" text-anchor="middle" class="label">LYDO Staff /</text>
  <text x="1590" y="930" text-anchor="middle" class="label">SK Officer</text>

  <line x1="146" y1="238" x2="670" y2="210" class="line"/>
  <line x1="146" y1="518" x2="690" y2="224" class="line"/>
  <line x1="1554" y1="518" x2="1030" y2="210" class="line"/>
  <line x1="1554" y1="778" x2="1015" y2="224" class="line"/>
  <line x1="1554" y1="238" x2="850" y2="520" class="line"/>

  <line x1="785" y1="253" x2="705" y2="484" class="dashed"/>
  <text x="744" y="392" text-anchor="middle" class="small">&lt;&lt;include&gt;&gt;</text>

  <line x1="1045" y1="484" x2="920" y2="252" class="dashed"/>
  <text x="980" y="392" text-anchor="middle" class="small">&lt;&lt;extend&gt;&gt;</text>
</svg>
