<?xml version="1.0" encoding="UTF-8"?>
<svg xmlns="http://www.w3.org/2000/svg" width="2700" height="1900" viewBox="0 0 2700 1900">
  <defs>
    <style>
      .title { font: 700 32px Arial, sans-serif; fill: #111827; }
      .systemTitle { font: 700 22px Arial, sans-serif; fill: #111827; }
      .section { font: 700 18px Arial, sans-serif; fill: #334155; }
      .actorText { font: 700 17px Arial, sans-serif; fill: #111827; }
      .ucId { font: 700 13px Arial, sans-serif; fill: #475569; }
      .text { font: 15px Arial, sans-serif; fill: #111827; }
      .small { font: 13px Arial, sans-serif; fill: #111827; }
      .legend { font: 13px Arial, sans-serif; fill: #334155; }
      .system { fill: #ffffff; stroke: #111827; stroke-width: 2.5; }
      .band { fill: #f8fafc; stroke: #cbd5e1; stroke-width: 1.2; }
      .mainUsecase { fill: #fff7ed; stroke: #111827; stroke-width: 2.2; }
      .helperUsecase { fill: #ffffff; stroke: #111827; stroke-width: 1.8; }
      .actorShape { fill: #ffffff; stroke: #111827; stroke-width: 2.2; }
      .assoc { fill: none; stroke: #111827; stroke-width: 1.8; stroke-linecap: round; stroke-linejoin: round; }
      .include { fill: none; stroke: #111827; stroke-width: 1.6; stroke-dasharray: 8 7; stroke-linecap: round; stroke-linejoin: round; marker-end: url(#includeArrow); }
      .extend { fill: none; stroke: #2563eb; stroke-width: 1.6; stroke-dasharray: 8 7; stroke-linecap: round; stroke-linejoin: round; marker-end: url(#extendArrow); }
      .gen { fill: none; stroke: #111827; stroke-width: 1.8; stroke-linecap: round; stroke-linejoin: round; marker-end: url(#inheritArrow); }
      .legendBox { fill: #ffffff; stroke: #94a3b8; stroke-width: 1.4; }
    </style>
    <marker id="includeArrow" markerWidth="11" markerHeight="11" refX="10" refY="5.5" orient="auto">
      <path d="M1,1 L10,5.5 L1,10" fill="none" stroke="#111827" stroke-width="1.8"/>
    </marker>
    <marker id="extendArrow" markerWidth="11" markerHeight="11" refX="10" refY="5.5" orient="auto">
      <path d="M1,1 L10,5.5 L1,10" fill="none" stroke="#2563eb" stroke-width="1.8"/>
    </marker>
    <marker id="inheritArrow" markerWidth="13" markerHeight="13" refX="12" refY="6.5" orient="auto">
      <path d="M1,1 L12,6.5 L1,12 Z" fill="#ffffff" stroke="#111827" stroke-width="1.6"/>
    </marker>
  </defs>

  <rect width="2700" height="1900" fill="#ffffff"/>
  <text x="1350" y="48" text-anchor="middle" class="title">Figure 1. General Use Case Diagram of LYDO Connect</text>

  <rect x="250" y="85" width="2200" height="1715" rx="12" ry="12" class="system"/>
  <text x="1350" y="123" text-anchor="middle" class="systemTitle">LYDO Connect: Youth Governance Transparency and Accountability System</text>

  <rect x="285" y="150" width="990" height="590" rx="10" ry="10" class="band"/>
  <text x="315" y="181" class="section">Account Access and Public Portal</text>

  <rect x="285" y="775" width="990" height="850" rx="10" ry="10" class="band"/>
  <text x="315" y="806" class="section">Youth and Citizen Services</text>

  <rect x="1315" y="150" width="1100" height="1475" rx="10" ry="10" class="band"/>
  <text x="1345" y="181" class="section">Admin Portal and Management Services</text>

  <!-- Actor associations: public and account users -->
  <polyline points="160,250 250,250 250,455 500,455" class="assoc"/>
  <polyline points="160,250 250,250 250,585 305,585" class="assoc"/>
  <polyline points="160,250 250,250 250,585 770,585" class="assoc"/>

  <polyline points="160,665 225,665 225,230 350,230" class="assoc"/>
  <polyline points="160,665 225,665 225,230 665,230" class="assoc"/>
  <polyline points="160,665 225,665 225,865 270,865" class="assoc"/>
  <polyline points="160,665 225,665 225,1065 270,1065" class="assoc"/>
  <polyline points="160,665 225,665 225,1065 660,1065" class="assoc"/>

  <polyline points="160,1080 205,1080 205,230 350,230" class="assoc"/>
  <polyline points="160,1080 205,1080 205,230 665,230" class="assoc"/>
  <polyline points="160,1080 205,1080 205,1065 660,1065" class="assoc"/>

  <!-- Actor generalization for public browsing privileges -->
  <line x1="95" y1="555" x2="95" y2="340" class="gen"/>
  <line x1="135" y1="970" x2="135" y2="340" class="gen"/>

  <!-- Actor associations: admin users -->
  <polyline points="2540,445 2450,445 2450,230 2050,230" class="assoc"/>
  <polyline points="2540,445 2450,445 2450,230 985,230" class="assoc"/>
  <polyline points="2540,445 2450,445 2450,455 1700,455" class="assoc"/>
  <polyline points="2540,445 2450,445 2450,455 2185,455" class="assoc"/>
  <polyline points="2540,445 2450,445 2450,690 2210,690" class="assoc"/>
  <polyline points="2540,445 2450,445 2450,825 1700,825" class="assoc"/>
  <polyline points="2540,445 2450,445 2450,825 2185,825" class="assoc"/>
  <polyline points="2540,445 2450,445 2450,1225 1700,1225" class="assoc"/>
  <polyline points="2540,445 2450,445 2450,1225 2185,1225" class="assoc"/>

  <polyline points="2540,895 2470,895 2470,230 985,230" class="assoc"/>
  <polyline points="2540,895 2470,895 2470,230 2050,230" class="assoc"/>
  <polyline points="2540,895 2470,895 2470,455 1700,455" class="assoc"/>
  <polyline points="2540,895 2470,895 2470,455 2185,455" class="assoc"/>
  <polyline points="2540,895 2470,895 2470,690 2210,690" class="assoc"/>
  <polyline points="2540,895 2470,895 2470,825 1700,825" class="assoc"/>
  <polyline points="2540,895 2470,895 2470,825 2185,825" class="assoc"/>

  <!-- Account use cases -->
  <ellipse cx="500" cy="230" rx="150" ry="42" class="mainUsecase"/>
  <text x="500" y="219" text-anchor="middle" class="ucId">UC-01</text>
  <text x="500" y="239" text-anchor="middle" class="text">Register Account</text>

  <ellipse cx="825" cy="230" rx="160" ry="42" class="mainUsecase"/>
  <text x="825" y="219" text-anchor="middle" class="ucId">UC-02</text>
  <text x="825" y="239" text-anchor="middle" class="text">Log In / Sign Out</text>

  <ellipse cx="1120" cy="230" rx="135" ry="38" class="helperUsecase"/>
  <text x="1120" y="226" text-anchor="middle" class="text">Verify Active</text>
  <text x="1120" y="245" text-anchor="middle" class="text">Session</text>

  <ellipse cx="500" cy="330" rx="140" ry="34" class="helperUsecase"/>
  <text x="500" y="326" text-anchor="middle" class="text">Validate Account</text>
  <text x="500" y="345" text-anchor="middle" class="text">Details</text>

  <ellipse cx="825" cy="330" rx="140" ry="34" class="helperUsecase"/>
  <text x="825" y="326" text-anchor="middle" class="text">Validate</text>
  <text x="825" y="345" text-anchor="middle" class="text">Credentials</text>

  <ellipse cx="1100" cy="330" rx="130" ry="34" class="helperUsecase"/>
  <text x="1100" y="326" text-anchor="middle" class="text">Redirect by</text>
  <text x="1100" y="345" text-anchor="middle" class="text">User Role</text>

  <line x1="500" y1="272" x2="500" y2="296" class="include"/>
  <line x1="825" y1="272" x2="825" y2="296" class="include"/>
  <line x1="940" y1="258" x2="1010" y2="304" class="extend"/>

  <!-- Public portal use cases -->
  <ellipse cx="690" cy="455" rx="190" ry="44" class="mainUsecase"/>
  <text x="690" y="444" text-anchor="middle" class="ucId">UC-03</text>
  <text x="690" y="464" text-anchor="middle" class="text">Browse Public Portal</text>

  <ellipse cx="455" cy="585" rx="150" ry="44" class="mainUsecase"/>
  <text x="455" y="574" text-anchor="middle" class="ucId">UC-04</text>
  <text x="455" y="594" text-anchor="middle" class="text">View Programs,</text>
  <text x="455" y="613" text-anchor="middle" class="text">Events, and Orgs</text>

  <ellipse cx="930" cy="585" rx="160" ry="44" class="mainUsecase"/>
  <text x="930" y="574" text-anchor="middle" class="ucId">UC-05</text>
  <text x="930" y="594" text-anchor="middle" class="text">View Transparency</text>
  <text x="930" y="613" text-anchor="middle" class="text">Services</text>

  <ellipse cx="410" cy="690" rx="125" ry="33" class="helperUsecase"/>
  <text x="410" y="686" text-anchor="middle" class="text">Load Published</text>
  <text x="410" y="704" text-anchor="middle" class="text">Records</text>

  <ellipse cx="665" cy="690" rx="130" ry="33" class="helperUsecase"/>
  <text x="665" y="686" text-anchor="middle" class="text">Search and</text>
  <text x="665" y="704" text-anchor="middle" class="text">Filter Listings</text>

  <ellipse cx="915" cy="690" rx="115" ry="33" class="helperUsecase"/>
  <text x="915" y="686" text-anchor="middle" class="text">Open Source</text>
  <text x="915" y="704" text-anchor="middle" class="text">Post</text>

  <ellipse cx="1140" cy="690" rx="115" ry="33" class="helperUsecase"/>
  <text x="1140" y="686" text-anchor="middle" class="text">Preview Location</text>
  <text x="1140" y="704" text-anchor="middle" class="text">or Map</text>

  <ellipse cx="1140" cy="515" rx="120" ry="33" class="helperUsecase"/>
  <text x="1140" y="511" text-anchor="middle" class="text">Export Disclosure</text>
  <text x="1140" y="529" text-anchor="middle" class="text">Registry</text>

  <line x1="630" y1="494" x2="470" y2="660" class="include"/>
  <line x1="690" y1="499" x2="665" y2="657" class="include"/>
  <line x1="455" y1="629" x2="410" y2="657" class="include"/>
  <line x1="540" y1="620" x2="625" y2="660" class="include"/>
  <line x1="850" y1="625" x2="470" y2="660" class="include"/>
  <line x1="860" y1="625" x2="700" y2="660" class="include"/>
  <line x1="820" y1="493" x2="900" y2="657" class="extend"/>
  <line x1="845" y1="485" x2="1115" y2="660" class="extend"/>
  <line x1="560" y1="620" x2="880" y2="665" class="extend"/>
  <line x1="595" y1="605" x2="1110" y2="665" class="extend"/>
  <line x1="1045" y1="620" x2="1100" y2="660" class="extend"/>
  <line x1="1035" y1="555" x2="1095" y2="535" class="extend"/>

  <!-- Youth and citizen service use cases -->
  <ellipse cx="430" cy="865" rx="160" ry="44" class="mainUsecase"/>
  <text x="430" y="854" text-anchor="middle" class="ucId">UC-06</text>
  <text x="430" y="874" text-anchor="middle" class="text">Register for Program</text>
  <text x="430" y="893" text-anchor="middle" class="text">or Event</text>

  <ellipse cx="430" cy="1065" rx="170" ry="44" class="mainUsecase"/>
  <text x="430" y="1054" text-anchor="middle" class="ucId">UC-08</text>
  <text x="430" y="1074" text-anchor="middle" class="text">Manage Profile and</text>
  <text x="430" y="1093" text-anchor="middle" class="text">Participation History</text>

  <ellipse cx="820" cy="1065" rx="160" ry="44" class="mainUsecase"/>
  <text x="820" y="1054" text-anchor="middle" class="ucId">UC-09</text>
  <text x="820" y="1074" text-anchor="middle" class="text">Submit and View</text>
  <text x="820" y="1093" text-anchor="middle" class="text">Citizen Tickets</text>

  <ellipse cx="350" cy="1230" rx="125" ry="33" class="helperUsecase"/>
  <text x="350" y="1226" text-anchor="middle" class="text">Validate</text>
  <text x="350" y="1244" text-anchor="middle" class="text">Registration</text>

  <ellipse cx="570" cy="1230" rx="125" ry="33" class="helperUsecase"/>
  <text x="570" y="1226" text-anchor="middle" class="text">Save Local</text>
  <text x="570" y="1244" text-anchor="middle" class="text">Registration</text>

  <ellipse cx="800" cy="1230" rx="145" ry="33" class="helperUsecase"/>
  <text x="800" y="1226" text-anchor="middle" class="text">Update Participation</text>
  <text x="800" y="1244" text-anchor="middle" class="text">History</text>

  <ellipse cx="350" cy="1390" rx="125" ry="33" class="helperUsecase"/>
  <text x="350" y="1386" text-anchor="middle" class="text">Cancel</text>
  <text x="350" y="1404" text-anchor="middle" class="text">Registration</text>

  <ellipse cx="610" cy="1390" rx="130" ry="33" class="helperUsecase"/>
  <text x="610" y="1386" text-anchor="middle" class="text">Update Profile</text>
  <text x="610" y="1404" text-anchor="middle" class="text">Settings</text>

  <ellipse cx="785" cy="1530" rx="130" ry="33" class="helperUsecase"/>
  <text x="785" y="1526" text-anchor="middle" class="text">Generate Ticket</text>
  <text x="785" y="1544" text-anchor="middle" class="text">Reference</text>

  <ellipse cx="1035" cy="1530" rx="125" ry="33" class="helperUsecase"/>
  <text x="1035" y="1526" text-anchor="middle" class="text">View Ticket</text>
  <text x="1035" y="1544" text-anchor="middle" class="text">Status</text>

  <ellipse cx="1095" cy="1390" rx="155" ry="33" class="helperUsecase"/>
  <text x="1095" y="1386" text-anchor="middle" class="text">View Account-Linked</text>
  <text x="1095" y="1404" text-anchor="middle" class="text">Tickets</text>

  <line x1="515" y1="828" x2="1035" y2="260" class="include"/>
  <line x1="455" y1="1022" x2="1050" y2="260" class="include"/>
  <line x1="395" y1="908" x2="360" y2="1198" class="include"/>
  <line x1="440" y1="909" x2="560" y2="1198" class="include"/>
  <line x1="520" y1="898" x2="750" y2="1200" class="include"/>
  <line x1="415" y1="908" x2="350" y2="1357" class="extend"/>
  <line x1="475" y1="1107" x2="610" y2="1357" class="include"/>
  <line x1="555" y1="1090" x2="760" y2="1200" class="include"/>
  <line x1="805" y1="1109" x2="785" y2="1497" class="include"/>
  <line x1="850" y1="1108" x2="1035" y2="1497" class="include"/>
  <line x1="910" y1="1098" x2="1095" y2="1357" class="extend"/>

  <!-- Admin use cases -->
  <ellipse cx="1870" cy="230" rx="185" ry="44" class="mainUsecase"/>
  <text x="1870" y="219" text-anchor="middle" class="ucId">UC-10</text>
  <text x="1870" y="239" text-anchor="middle" class="text">Access Admin Portal</text>
  <text x="1870" y="258" text-anchor="middle" class="text">and Dashboard</text>

  <ellipse cx="2205" cy="330" rx="130" ry="33" class="helperUsecase"/>
  <text x="2205" y="326" text-anchor="middle" class="text">View Admin</text>
  <text x="2205" y="344" text-anchor="middle" class="text">Dashboard</text>

  <ellipse cx="1550" cy="455" rx="150" ry="44" class="mainUsecase"/>
  <text x="1550" y="444" text-anchor="middle" class="ucId">UC-11</text>
  <text x="1550" y="464" text-anchor="middle" class="text">Manage Youth</text>
  <text x="1550" y="483" text-anchor="middle" class="text">Records</text>

  <ellipse cx="2050" cy="455" rx="150" ry="44" class="mainUsecase"/>
  <text x="2050" y="444" text-anchor="middle" class="ucId">UC-12</text>
  <text x="2050" y="464" text-anchor="middle" class="text">Monitor Local</text>
  <text x="2050" y="483" text-anchor="middle" class="text">Registrations</text>

  <ellipse cx="1430" cy="590" rx="120" ry="33" class="helperUsecase"/>
  <text x="1430" y="586" text-anchor="middle" class="text">Validate Record</text>
  <text x="1430" y="604" text-anchor="middle" class="text">Data</text>

  <ellipse cx="1660" cy="590" rx="120" ry="33" class="helperUsecase"/>
  <text x="1660" y="586" text-anchor="middle" class="text">Save Record</text>
  <text x="1660" y="604" text-anchor="middle" class="text">Changes</text>

  <ellipse cx="1660" cy="690" rx="135" ry="33" class="helperUsecase"/>
  <text x="1660" y="686" text-anchor="middle" class="text">Attach Source or</text>
  <text x="1660" y="704" text-anchor="middle" class="text">Set Location</text>

  <ellipse cx="1965" cy="590" rx="130" ry="33" class="helperUsecase"/>
  <text x="1965" y="586" text-anchor="middle" class="text">View and Filter</text>
  <text x="1965" y="604" text-anchor="middle" class="text">Registrations</text>

  <ellipse cx="2245" cy="590" rx="105" ry="33" class="helperUsecase"/>
  <text x="2245" y="586" text-anchor="middle" class="text">Export</text>
  <text x="2245" y="604" text-anchor="middle" class="text">CSV</text>

  <ellipse cx="2050" cy="690" rx="160" ry="44" class="mainUsecase"/>
  <text x="2050" y="679" text-anchor="middle" class="ucId">UC-07</text>
  <text x="2050" y="699" text-anchor="middle" class="text">Post Organization</text>
  <text x="2050" y="718" text-anchor="middle" class="text">Information</text>

  <ellipse cx="1550" cy="825" rx="170" ry="44" class="mainUsecase"/>
  <text x="1550" y="814" text-anchor="middle" class="ucId">UC-13</text>
  <text x="1550" y="834" text-anchor="middle" class="text">Manage Transparency</text>
  <text x="1550" y="853" text-anchor="middle" class="text">and Financial Records</text>

  <ellipse cx="2050" cy="825" rx="160" ry="44" class="mainUsecase"/>
  <text x="2050" y="814" text-anchor="middle" class="ucId">UC-14</text>
  <text x="2050" y="834" text-anchor="middle" class="text">Manage Citizen</text>
  <text x="2050" y="853" text-anchor="middle" class="text">Desk Tickets</text>

  <ellipse cx="1430" cy="965" rx="120" ry="33" class="helperUsecase"/>
  <text x="1430" y="961" text-anchor="middle" class="text">Validate</text>
  <text x="1430" y="979" text-anchor="middle" class="text">Metadata</text>

  <ellipse cx="1660" cy="965" rx="125" ry="33" class="helperUsecase"/>
  <text x="1660" y="961" text-anchor="middle" class="text">Upload or Save</text>
  <text x="1660" y="979" text-anchor="middle" class="text">Record</text>

  <ellipse cx="1660" cy="1065" rx="125" ry="33" class="helperUsecase"/>
  <text x="1660" y="1061" text-anchor="middle" class="text">Export Financial</text>
  <text x="1660" y="1079" text-anchor="middle" class="text">Reports</text>

  <ellipse cx="1965" cy="965" rx="125" ry="33" class="helperUsecase"/>
  <text x="1965" y="961" text-anchor="middle" class="text">Review Ticket</text>
  <text x="1965" y="979" text-anchor="middle" class="text">Details</text>

  <ellipse cx="2245" cy="965" rx="125" ry="33" class="helperUsecase"/>
  <text x="2245" y="961" text-anchor="middle" class="text">Update Status</text>
  <text x="2245" y="979" text-anchor="middle" class="text">and Priority</text>

  <ellipse cx="1550" cy="1225" rx="155" ry="44" class="mainUsecase"/>
  <text x="1550" y="1214" text-anchor="middle" class="ucId">UC-15</text>
  <text x="1550" y="1234" text-anchor="middle" class="text">Manage Users</text>
  <text x="1550" y="1253" text-anchor="middle" class="text">and Roles</text>

  <ellipse cx="2050" cy="1225" rx="155" ry="44" class="mainUsecase"/>
  <text x="2050" y="1214" text-anchor="middle" class="ucId">UC-16</text>
  <text x="2050" y="1234" text-anchor="middle" class="text">Review Audit</text>
  <text x="2050" y="1253" text-anchor="middle" class="text">Logs</text>

  <ellipse cx="1430" cy="1370" rx="125" ry="33" class="helperUsecase"/>
  <text x="1430" y="1366" text-anchor="middle" class="text">Update User</text>
  <text x="1430" y="1384" text-anchor="middle" class="text">Profiles</text>

  <ellipse cx="1660" cy="1370" rx="135" ry="33" class="helperUsecase"/>
  <text x="1660" y="1366" text-anchor="middle" class="text">Maintain Role</text>
  <text x="1660" y="1384" text-anchor="middle" class="text">Definitions</text>

  <ellipse cx="2050" cy="1370" rx="155" ry="33" class="helperUsecase"/>
  <text x="2050" y="1366" text-anchor="middle" class="text">Filter and View</text>
  <text x="2050" y="1384" text-anchor="middle" class="text">Change History</text>

  <line x1="1710" y1="210" x2="1240" y2="225" class="include"/>
  <line x1="2028" y1="255" x2="2130" y2="310" class="include"/>

  <line x1="1505" y1="498" x2="1450" y2="558" class="include"/>
  <line x1="1595" y1="498" x2="1645" y2="558" class="include"/>
  <line x1="1600" y1="495" x2="1645" y2="658" class="extend"/>
  <line x1="2015" y1="499" x2="1975" y2="558" class="include"/>
  <line x1="2115" y1="495" x2="2225" y2="558" class="extend"/>
  <line x1="1920" y1="666" x2="1515" y2="605" class="include"/>
  <line x1="1940" y1="660" x2="1745" y2="610" class="include"/>
  <line x1="1890" y1="690" x2="1795" y2="690" class="extend"/>

  <line x1="1505" y1="868" x2="1450" y2="933" class="include"/>
  <line x1="1595" y1="868" x2="1645" y2="933" class="include"/>
  <line x1="1595" y1="867" x2="1645" y2="1033" class="extend"/>
  <line x1="2015" y1="869" x2="1975" y2="933" class="include"/>
  <line x1="2115" y1="865" x2="2225" y2="933" class="include"/>

  <line x1="1505" y1="1268" x2="1450" y2="1338" class="include"/>
  <line x1="1595" y1="1268" x2="1645" y2="1338" class="include"/>
  <line x1="2050" y1="1269" x2="2050" y2="1337" class="include"/>

  <!-- Actors -->
  <g id="public-viewer">
    <circle cx="115" cy="180" r="24" class="actorShape"/>
    <line x1="115" y1="204" x2="115" y2="270" class="assoc"/>
    <line x1="78" y1="230" x2="152" y2="230" class="assoc"/>
    <line x1="115" y1="270" x2="82" y2="325" class="assoc"/>
    <line x1="115" y1="270" x2="148" y2="325" class="assoc"/>
    <text x="115" y="358" text-anchor="middle" class="actorText">Public Viewer</text>
  </g>

  <g id="youth-user">
    <circle cx="115" cy="595" r="24" class="actorShape"/>
    <line x1="115" y1="619" x2="115" y2="685" class="assoc"/>
    <line x1="78" y1="645" x2="152" y2="645" class="assoc"/>
    <line x1="115" y1="685" x2="82" y2="740" class="assoc"/>
    <line x1="115" y1="685" x2="148" y2="740" class="assoc"/>
    <text x="115" y="773" text-anchor="middle" class="actorText">Youth User</text>
  </g>

  <g id="citizen">
    <circle cx="115" cy="1010" r="24" class="actorShape"/>
    <line x1="115" y1="1034" x2="115" y2="1100" class="assoc"/>
    <line x1="78" y1="1060" x2="152" y2="1060" class="assoc"/>
    <line x1="115" y1="1100" x2="82" y2="1155" class="assoc"/>
    <line x1="115" y1="1100" x2="148" y2="1155" class="assoc"/>
    <text x="115" y="1188" text-anchor="middle" class="actorText">Citizen</text>
  </g>

  <g id="lydo-admin">
    <circle cx="2585" cy="375" r="24" class="actorShape"/>
    <line x1="2585" y1="399" x2="2585" y2="465" class="assoc"/>
    <line x1="2548" y1="425" x2="2622" y2="425" class="assoc"/>
    <line x1="2585" y1="465" x2="2552" y2="520" class="assoc"/>
    <line x1="2585" y1="465" x2="2618" y2="520" class="assoc"/>
    <text x="2585" y="553" text-anchor="middle" class="actorText">LYDO</text>
    <text x="2585" y="575" text-anchor="middle" class="actorText">Administrator</text>
  </g>

  <g id="staff-sk">
    <circle cx="2585" cy="825" r="24" class="actorShape"/>
    <line x1="2585" y1="849" x2="2585" y2="915" class="assoc"/>
    <line x1="2548" y1="875" x2="2622" y2="875" class="assoc"/>
    <line x1="2585" y1="915" x2="2552" y2="970" class="assoc"/>
    <line x1="2585" y1="915" x2="2618" y2="970" class="assoc"/>
    <text x="2585" y="1003" text-anchor="middle" class="actorText">Staff /</text>
    <text x="2585" y="1025" text-anchor="middle" class="actorText">SK Officer</text>
  </g>

  <!-- Legend -->
  <rect x="315" y="1660" width="1320" height="95" rx="8" ry="8" class="legendBox"/>
  <line x1="350" y1="1690" x2="430" y2="1690" class="assoc"/>
  <text x="445" y="1695" class="legend">actor association</text>
  <line x1="630" y1="1690" x2="710" y2="1690" class="include"/>
  <text x="725" y="1695" class="legend">&lt;&lt;include&gt;&gt; required supporting use case</text>
  <line x1="1015" y1="1690" x2="1095" y2="1690" class="extend"/>
  <text x="1110" y="1695" class="legend">&lt;&lt;extend&gt;&gt; optional or conditional supporting use case</text>
  <line x1="350" y1="1725" x2="430" y2="1725" class="gen"/>
  <text x="445" y="1730" class="legend">actor generalization: Youth User and Citizen inherit Public Viewer browsing access</text>
  <text x="1015" y="1730" class="legend">Main orange ovals map to UC-01 through UC-16 in the use case report.</text>
</svg>
