<?xml version="1.0" encoding="UTF-8"?>
<svg xmlns="http://www.w3.org/2000/svg" width="1700" height="980" viewBox="0 0 1700 980">
  <defs>
    <style>
      .title { font: 700 28px Arial, sans-serif; fill: #111; }
      .system { font: 700 22px Arial, sans-serif; fill: #111; }
      .label { font: 700 18px Arial, sans-serif; fill: #111; }
      .text { font: 16px Arial, sans-serif; fill: #111; }
      .small { font: italic 15px Arial, sans-serif; fill: #111; }
      .shape { fill: #fff; stroke: #111; stroke-width: 2.3; }
      .line { fill: none; stroke: #111; stroke-width: 2.3; stroke-linecap: round; }
      .dashed { fill: none; stroke: #111; stroke-width: 2.1; stroke-dasharray: 11 8; marker-end: url(#arrow); }
    </style>
    <marker id="arrow" markerWidth="12" markerHeight="12" refX="10" refY="6" orient="auto">
      <path d="M0,0 L12,6 L0,12 z" fill="#111"/>
    </marker>
  </defs>

  <rect width="1700" height="980" fill="#fff"/>

  <text x="850" y="46" text-anchor="middle" class="title">Figure 6. Use Case Diagram of Manage Profile and Participation History</text>

  <rect x="390" y="100" width="920" height="770" rx="12" ry="12" class="shape"/>
  <text x="850" y="138" text-anchor="middle" class="system">LYDO Connect</text>

  <ellipse cx="850" cy="210" rx="310" ry="46" class="shape"/>
  <text x="850" y="202" text-anchor="middle" class="text">UC-05</text>
  <text x="850" y="226" text-anchor="middle" class="text">Manage Profile and Participation History</text>

  <ellipse cx="640" cy="470" rx="180" ry="36" class="shape"/>
  <text x="640" y="463" text-anchor="middle" class="text">View Joined Records</text>

  <ellipse cx="1070" cy="470" rx="180" ry="36" class="shape"/>
  <text x="1070" y="463" text-anchor="middle" class="text">Update User Settings</text>

  <ellipse cx="640" cy="710" rx="180" ry="34" class="shape"/>
  <text x="640" y="703" text-anchor="middle" class="text">Cancel Registration</text>

  <ellipse cx="1070" cy="710" rx="170" ry="34" class="shape"/>
  <text x="1070" y="703" text-anchor="middle" class="text">Leave Organization</text>

  <circle cx="110" cy="280" r="22" class="shape"/>
  <line x1="110" y1="302" x2="110" y2="372" class="line"/>
  <line x1="74" y1="328" x2="146" y2="328" class="line"/>
  <line x1="110" y1="372" x2="80" y2="422" class="line"/>
  <line x1="110" y1="372" x2="140" y2="422" class="line"/>
  <text x="110" y="456" text-anchor="middle" class="label">Youth User</text>

  <line x1="146" y1="328" x2="540" y2="220" class="line"/>

  <line x1="765" y1="255" x2="690" y2="434" class="dashed"/>
  <text x="716" y="362" text-anchor="middle" class="small">&lt;&lt;include&gt;&gt;</text>

  <line x1="935" y1="255" x2="1015" y2="434" class="dashed"/>
  <text x="986" y="362" text-anchor="middle" class="small">&lt;&lt;include&gt;&gt;</text>

  <line x1="640" y1="676" x2="775" y2="255" class="dashed"/>
  <text x="695" y="576" text-anchor="middle" class="small">&lt;&lt;extend&gt;&gt;</text>

  <line x1="1070" y1="676" x2="930" y2="255" class="dashed"/>
  <text x="1015" y="576" text-anchor="middle" class="small">&lt;&lt;extend&gt;&gt;</text>
</svg>
