<svg xmlns="http://www.w3.org/2000/svg" width="1600" height="980" viewBox="0 0 1600 980" role="img" aria-label="Figure 1. General Use Case Diagram of LYDO Connect">
  <style>
    .title { font: 700 24px Arial, sans-serif; fill: #111827; }
    .system-title { font: 700 22px Arial, sans-serif; fill: #111827; }
    .label { font: 16px Arial, sans-serif; fill: #111827; }
    .small { font: 14px Arial, sans-serif; fill: #111827; }
    .actor-name { font: 20px Arial, sans-serif; fill: #111827; }
    .system-box { fill: #ffffff; stroke: #111827; stroke-width: 2; }
    .main-usecase { fill: #7dd3fc; stroke: #111827; stroke-width: 2; }
    .helper-usecase { fill: #ffffff; stroke: #111827; stroke-width: 2; }
    .assoc { stroke: #111827; stroke-width: 2.2; fill: none; }
    .include { stroke: #111827; stroke-width: 1.8; fill: none; stroke-dasharray: 7 6; }
    .extend { stroke: #2563eb; stroke-width: 1.8; fill: none; stroke-dasharray: 7 6; }
    .actor-line { stroke: #111827; stroke-width: 3; }
  </style>

  <defs>
    <marker id="arrow-black" viewBox="0 0 10 10" refX="8" refY="5" markerWidth="8" markerHeight="8" orient="auto-start-reverse">
      <path d="M 0 0 L 10 5 L 0 10 z" fill="#111827" />
    </marker>
    <marker id="arrow-blue" viewBox="0 0 10 10" refX="8" refY="5" markerWidth="8" markerHeight="8" orient="auto-start-reverse">
      <path d="M 0 0 L 10 5 L 0 10 z" fill="#2563eb" />
    </marker>
  </defs>

  <text x="60" y="50" class="title">Figure 1. General Use Case Diagram of LYDO Connect</text>

  <rect x="220" y="90" width="1160" height="830" class="system-box" />
  <text x="800" y="125" text-anchor="middle" class="system-title">LYDO Connect System</text>

  <circle cx="120" cy="300" r="16" fill="#9bdcf9" stroke="#111827" stroke-width="2"/>
  <line x1="120" y1="316" x2="120" y2="390" class="actor-line"/>
  <line x1="70" y1="340" x2="170" y2="340" class="actor-line"/>
  <line x1="120" y1="390" x2="85" y2="445" class="actor-line"/>
  <line x1="120" y1="390" x2="155" y2="445" class="actor-line"/>
  <text x="120" y="485" text-anchor="middle" class="actor-name">Organization User</text>

  <circle cx="1480" cy="320" r="16" fill="#9bdcf9" stroke="#111827" stroke-width="2"/>
  <line x1="1480" y1="336" x2="1480" y2="410" class="actor-line"/>
  <line x1="1430" y1="360" x2="1530" y2="360" class="actor-line"/>
  <line x1="1480" y1="410" x2="1445" y2="465" class="actor-line"/>
  <line x1="1480" y1="410" x2="1515" y2="465" class="actor-line"/>
  <text x="1480" y="505" text-anchor="middle" class="actor-name">LYDO Admin</text>

  <ellipse cx="390" cy="210" rx="95" ry="36" class="main-usecase"/>
  <text x="390" y="216" text-anchor="middle" class="label">Login</text>

  <ellipse cx="390" cy="315" rx="150" ry="36" class="main-usecase"/>
  <text x="390" y="309" text-anchor="middle" class="label">Manage Organization</text>
  <text x="390" y="329" text-anchor="middle" class="label">Profile</text>

  <ellipse cx="390" cy="430" rx="165" ry="36" class="main-usecase"/>
  <text x="390" y="424" text-anchor="middle" class="label">Submit Compliance</text>
  <text x="390" y="444" text-anchor="middle" class="label">Documents</text>

  <ellipse cx="390" cy="545" rx="155" ry="36" class="main-usecase"/>
  <text x="390" y="539" text-anchor="middle" class="label">Manage Budget</text>
  <text x="390" y="559" text-anchor="middle" class="label">Requests</text>

  <ellipse cx="390" cy="660" rx="160" ry="36" class="main-usecase"/>
  <text x="390" y="654" text-anchor="middle" class="label">Submit Liquidation</text>
  <text x="390" y="674" text-anchor="middle" class="label">Reports</text>

  <ellipse cx="390" cy="775" rx="150" ry="36" class="main-usecase"/>
  <text x="390" y="769" text-anchor="middle" class="label">Manage YPOP</text>
  <text x="390" y="789" text-anchor="middle" class="label">Entries</text>

  <ellipse cx="655" cy="160" rx="115" ry="32" class="helper-usecase"/>
  <text x="655" y="166" text-anchor="middle" class="small">Authenticate User</text>

  <ellipse cx="655" cy="240" rx="120" ry="32" class="helper-usecase"/>
  <text x="655" y="246" text-anchor="middle" class="small">Load Active Policy</text>

  <ellipse cx="655" cy="345" rx="145" ry="32" class="helper-usecase"/>
  <text x="655" y="339" text-anchor="middle" class="small">Validate Profile</text>
  <text x="655" y="357" text-anchor="middle" class="small">and Form Data</text>

  <ellipse cx="655" cy="460" rx="135" ry="32" class="helper-usecase"/>
  <text x="655" y="454" text-anchor="middle" class="small">Validate Uploaded</text>
  <text x="655" y="472" text-anchor="middle" class="small">Files</text>

  <ellipse cx="655" cy="590" rx="165" ry="32" class="helper-usecase"/>
  <text x="655" y="584" text-anchor="middle" class="small">Update Statuses and</text>
  <text x="655" y="602" text-anchor="middle" class="small">Generate Notifications</text>

  <ellipse cx="655" cy="705" rx="150" ry="32" class="helper-usecase"/>
  <text x="655" y="699" text-anchor="middle" class="small">Preview Files and</text>
  <text x="655" y="717" text-anchor="middle" class="small">News Records</text>

  <ellipse cx="1210" cy="210" rx="175" ry="36" class="main-usecase"/>
  <text x="1210" y="204" text-anchor="middle" class="label">Review Registration</text>
  <text x="1210" y="224" text-anchor="middle" class="label">and Documents</text>

  <ellipse cx="1210" cy="325" rx="185" ry="36" class="main-usecase"/>
  <text x="1210" y="319" text-anchor="middle" class="label">Review Budget and</text>
  <text x="1210" y="339" text-anchor="middle" class="label">Liquidation Records</text>

  <ellipse cx="1210" cy="440" rx="210" ry="36" class="main-usecase"/>
  <text x="1210" y="434" text-anchor="middle" class="label">Monitor Budget Tracking and</text>
  <text x="1210" y="454" text-anchor="middle" class="label">Barangay Allocation</text>

  <ellipse cx="1210" cy="555" rx="200" ry="36" class="main-usecase"/>
  <text x="1210" y="549" text-anchor="middle" class="label">Manage YPOP Validation</text>
  <text x="1210" y="569" text-anchor="middle" class="label">and YORP Registry</text>

  <ellipse cx="1210" cy="670" rx="185" ry="36" class="main-usecase"/>
  <text x="1210" y="664" text-anchor="middle" class="label">Manage News Releases</text>
  <text x="1210" y="684" text-anchor="middle" class="label">and Templates</text>

  <ellipse cx="1210" cy="785" rx="190" ry="36" class="main-usecase"/>
  <text x="1210" y="779" text-anchor="middle" class="label">Review Notifications</text>
  <text x="1210" y="799" text-anchor="middle" class="label">and Activity Logs</text>

  <path d="M170 340 C205 300, 235 240, 295 220" class="assoc"/>
  <path d="M170 340 C215 325, 250 320, 245 320" class="assoc"/>
  <path d="M170 340 C220 365, 250 410, 245 425" class="assoc"/>
  <path d="M170 340 C220 415, 255 520, 250 540" class="assoc"/>
  <path d="M170 340 C220 470, 255 635, 250 655" class="assoc"/>
  <path d="M170 340 C220 525, 255 750, 250 770" class="assoc"/>

  <path d="M1430 360 C1390 280, 1360 230, 1315 220" class="assoc"/>
  <path d="M1430 360 C1380 335, 1360 330, 1325 330" class="assoc"/>
  <path d="M1430 360 C1380 390, 1360 435, 1320 440" class="assoc"/>
  <path d="M1430 360 C1385 445, 1360 540, 1315 550" class="assoc"/>
  <path d="M1430 360 C1385 510, 1360 650, 1310 665" class="assoc"/>
  <path d="M1430 360 C1385 585, 1360 760, 1315 780" class="assoc"/>

  <path d="M485 190 C525 180, 545 172, 560 167" class="include" marker-end="url(#arrow-black)"/>
  <text x="525" y="170" class="small">&lt;&lt;include&gt;&gt;</text>

  <path d="M486 208 C530 220, 548 228, 560 233" class="extend" marker-end="url(#arrow-blue)"/>
  <text x="525" y="230" class="small" fill="#2563eb">&lt;&lt;extend&gt;&gt;</text>

  <path d="M520 315 C560 315, 575 325, 600 332" class="include" marker-end="url(#arrow-black)"/>
  <text x="535" y="304" class="small">&lt;&lt;include&gt;&gt;</text>

  <path d="M550 425 C580 420, 595 400, 610 370" class="include" marker-end="url(#arrow-black)"/>
  <text x="548" y="396" class="small">&lt;&lt;include&gt;&gt;</text>
  <path d="M552 438 C585 444, 598 448, 612 452" class="include" marker-end="url(#arrow-black)"/>
  <text x="565" y="438" class="small">&lt;&lt;include&gt;&gt;</text>
  <path d="M535 452 C580 500, 595 620, 615 682" class="extend" marker-end="url(#arrow-blue)"/>
  <text x="560" y="565" class="small" fill="#2563eb">&lt;&lt;extend&gt;&gt;</text>

  <path d="M540 545 C585 520, 600 520, 615 515" class="include" marker-end="url(#arrow-black)"/>
  <text x="565" y="518" class="small">&lt;&lt;include&gt;&gt;</text>
  <path d="M540 555 C585 565, 600 570, 615 577" class="include" marker-end="url(#arrow-black)"/>
  <text x="564" y="558" class="small">&lt;&lt;include&gt;&gt;</text>

  <path d="M545 660 C590 620, 603 610, 615 605" class="include" marker-end="url(#arrow-black)"/>
  <text x="564" y="630" class="small">&lt;&lt;include&gt;&gt;</text>
  <path d="M548 675 C590 695, 603 698, 615 700" class="extend" marker-end="url(#arrow-blue)"/>
  <text x="562" y="690" class="small" fill="#2563eb">&lt;&lt;extend&gt;&gt;</text>

  <path d="M540 775 C585 730, 603 618, 622 618" class="include" marker-end="url(#arrow-black)"/>
  <text x="565" y="722" class="small">&lt;&lt;include&gt;&gt;</text>
  <path d="M540 785 C585 748, 603 490, 620 485" class="include" marker-end="url(#arrow-black)"/>
  <text x="565" y="642" class="small">&lt;&lt;include&gt;&gt;</text>

  <path d="M1035 210 C955 210, 885 225, 770 430" class="include" marker-end="url(#arrow-black)"/>
  <text x="890" y="240" class="small">&lt;&lt;include&gt;&gt;</text>
  <path d="M1040 230 C955 260, 885 430, 770 676" class="extend" marker-end="url(#arrow-blue)"/>
  <text x="900" y="355" class="small" fill="#2563eb">&lt;&lt;extend&gt;&gt;</text>

  <path d="M1028 325 C940 325, 885 410, 770 560" class="include" marker-end="url(#arrow-black)"/>
  <text x="905" y="332" class="small">&lt;&lt;include&gt;&gt;</text>

  <path d="M1000 440 C930 430, 875 485, 770 575" class="include" marker-end="url(#arrow-black)"/>
  <text x="890" y="448" class="small">&lt;&lt;include&gt;&gt;</text>

  <path d="M1015 555 C925 555, 870 520, 770 470" class="include" marker-end="url(#arrow-black)"/>
  <text x="885" y="540" class="small">&lt;&lt;include&gt;&gt;</text>
  <path d="M1015 568 C930 610, 875 615, 770 618" class="include" marker-end="url(#arrow-black)"/>
  <text x="885" y="602" class="small">&lt;&lt;include&gt;&gt;</text>

  <path d="M1025 670 C930 670, 885 690, 805 700" class="extend" marker-end="url(#arrow-blue)"/>
  <text x="900" y="660" class="small" fill="#2563eb">&lt;&lt;extend&gt;&gt;</text>

  <path d="M1025 785 C930 785, 885 680, 770 610" class="include" marker-end="url(#arrow-black)"/>
  <text x="900" y="760" class="small">&lt;&lt;include&gt;&gt;</text>
</svg>
