<svg xmlns="http://www.w3.org/2000/svg" width="1800" height="1320" viewBox="0 0 1800 1320" role="img" aria-label="Figure 1. General Use Case Diagram of LYDO Connect">
  <style>
    .title { font: 700 26px Arial, sans-serif; fill: #111827; }
    .system-title { font: 700 24px Arial, sans-serif; fill: #111827; }
    .label { font: 16px Arial, sans-serif; fill: #111827; }
    .small { font: 14px Arial, sans-serif; fill: #111827; }
    .actor-name { font: 20px Arial, sans-serif; fill: #111827; }
    .system-box { fill: #ffffff; stroke: #111827; stroke-width: 2; }
    .main-usecase { fill: #7dd3fc; stroke: #111827; stroke-width: 2; }
    .helper-usecase { fill: #ffffff; stroke: #111827; stroke-width: 2; }
    .assoc { stroke: #111827; stroke-width: 2.2; fill: none; }
    .include { stroke: #111827; stroke-width: 1.8; fill: none; stroke-dasharray: 7 6; }
    .actor-line { stroke: #111827; stroke-width: 3; }
  </style>

  <defs>
    <marker id="arrow-black" viewBox="0 0 10 10" refX="8" refY="5" markerWidth="8" markerHeight="8" orient="auto">
      <path d="M 0 0 L 10 5 L 0 10 z" fill="#111827"/>
    </marker>
  </defs>

  <text x="60" y="52" class="title">Figure 1. General Use Case Diagram of LYDO Connect</text>

  <rect x="220" y="90" width="1360" height="1180" class="system-box"/>
  <text x="900" y="126" text-anchor="middle" class="system-title">LYDO Connect System</text>

  <!-- Actors -->
  <circle cx="100" cy="520" r="16" fill="#9bdcf9" stroke="#111827" stroke-width="2"/>
  <line x1="100" y1="536" x2="100" y2="610" class="actor-line"/>
  <line x1="50" y1="560" x2="150" y2="560" class="actor-line"/>
  <line x1="100" y1="610" x2="65" y2="665" class="actor-line"/>
  <line x1="100" y1="610" x2="135" y2="665" class="actor-line"/>
  <text x="100" y="705" text-anchor="middle" class="actor-name">Organization User</text>

  <circle cx="1700" cy="520" r="16" fill="#9bdcf9" stroke="#111827" stroke-width="2"/>
  <line x1="1700" y1="536" x2="1700" y2="610" class="actor-line"/>
  <line x1="1650" y1="560" x2="1750" y2="560" class="actor-line"/>
  <line x1="1700" y1="610" x2="1665" y2="665" class="actor-line"/>
  <line x1="1700" y1="610" x2="1735" y2="665" class="actor-line"/>
  <text x="1700" y="705" text-anchor="middle" class="actor-name">LYDO Admin</text>

  <!-- Organization User use cases -->
  <ellipse cx="430" cy="180" rx="125" ry="34" class="main-usecase"/>
  <text x="430" y="186" text-anchor="middle" class="label">Log in to Account</text>

  <ellipse cx="430" cy="285" rx="150" ry="36" class="main-usecase"/>
  <text x="430" y="279" text-anchor="middle" class="label">Manage Organization</text>
  <text x="430" y="299" text-anchor="middle" class="label">Profile</text>

  <ellipse cx="430" cy="395" rx="162" ry="36" class="main-usecase"/>
  <text x="430" y="389" text-anchor="middle" class="label">Submit Registration</text>
  <text x="430" y="409" text-anchor="middle" class="label">Requirements</text>

  <ellipse cx="430" cy="505" rx="160" ry="36" class="main-usecase"/>
  <text x="430" y="499" text-anchor="middle" class="label">Upload Compliance</text>
  <text x="430" y="519" text-anchor="middle" class="label">Documents</text>

  <ellipse cx="430" cy="615" rx="145" ry="36" class="main-usecase"/>
  <text x="430" y="621" text-anchor="middle" class="label">Submit Budget Request</text>

  <ellipse cx="430" cy="725" rx="155" ry="36" class="main-usecase"/>
  <text x="430" y="719" text-anchor="middle" class="label">Submit Liquidation</text>
  <text x="430" y="739" text-anchor="middle" class="label">Report</text>

  <ellipse cx="430" cy="835" rx="145" ry="36" class="main-usecase"/>
  <text x="430" y="841" text-anchor="middle" class="label">Manage YPOP Entries</text>

  <ellipse cx="430" cy="945" rx="170" ry="36" class="main-usecase"/>
  <text x="430" y="939" text-anchor="middle" class="label">View Request Status</text>
  <text x="430" y="959" text-anchor="middle" class="label">and Remarks</text>

  <ellipse cx="430" cy="1055" rx="182" ry="36" class="main-usecase"/>
  <text x="430" y="1049" text-anchor="middle" class="label">View News and</text>
  <text x="430" y="1069" text-anchor="middle" class="label">Transparency Posts</text>

  <ellipse cx="430" cy="1165" rx="145" ry="36" class="main-usecase"/>
  <text x="430" y="1171" text-anchor="middle" class="label">Receive Notifications</text>

  <!-- Included use cases -->
  <ellipse cx="900" cy="200" rx="115" ry="30" class="helper-usecase"/>
  <text x="900" y="206" text-anchor="middle" class="small">Authenticate User</text>

  <ellipse cx="900" cy="470" rx="132" ry="32" class="helper-usecase"/>
  <text x="900" y="476" text-anchor="middle" class="small">Upload Required Documents</text>

  <ellipse cx="900" cy="760" rx="120" ry="32" class="helper-usecase"/>
  <text x="900" y="766" text-anchor="middle" class="small">Update Request Status</text>

  <ellipse cx="900" cy="1060" rx="112" ry="32" class="helper-usecase"/>
  <text x="900" y="1066" text-anchor="middle" class="small">Notify Organization User</text>

  <!-- Admin use cases -->
  <ellipse cx="1360" cy="180" rx="145" ry="34" class="main-usecase"/>
  <text x="1360" y="186" text-anchor="middle" class="label">Log in to Admin Account</text>

  <ellipse cx="1360" cy="300" rx="170" ry="36" class="main-usecase"/>
  <text x="1360" y="294" text-anchor="middle" class="label">Review Organization</text>
  <text x="1360" y="314" text-anchor="middle" class="label">Registration</text>

  <ellipse cx="1360" cy="410" rx="165" ry="36" class="main-usecase"/>
  <text x="1360" y="404" text-anchor="middle" class="label">Review Compliance</text>
  <text x="1360" y="424" text-anchor="middle" class="label">Documents</text>

  <ellipse cx="1360" cy="520" rx="155" ry="36" class="main-usecase"/>
  <text x="1360" y="526" text-anchor="middle" class="label">Review Budget Requests</text>

  <ellipse cx="1360" cy="630" rx="165" ry="36" class="main-usecase"/>
  <text x="1360" y="624" text-anchor="middle" class="label">Review Liquidation</text>
  <text x="1360" y="644" text-anchor="middle" class="label">Reports</text>

  <ellipse cx="1360" cy="740" rx="205" ry="36" class="main-usecase"/>
  <text x="1360" y="734" text-anchor="middle" class="label">Monitor Budget Allocation</text>
  <text x="1360" y="754" text-anchor="middle" class="label">and Utilization</text>

  <ellipse cx="1360" cy="850" rx="188" ry="36" class="main-usecase"/>
  <text x="1360" y="844" text-anchor="middle" class="label">Validate YPOP and</text>
  <text x="1360" y="864" text-anchor="middle" class="label">YORR Records</text>

  <ellipse cx="1360" cy="960" rx="200" ry="36" class="main-usecase"/>
  <text x="1360" y="954" text-anchor="middle" class="label">Post News and</text>
  <text x="1360" y="974" text-anchor="middle" class="label">Transparency Updates</text>

  <ellipse cx="1360" cy="1070" rx="175" ry="36" class="main-usecase"/>
  <text x="1360" y="1064" text-anchor="middle" class="label">Send Remarks and</text>
  <text x="1360" y="1084" text-anchor="middle" class="label">Notifications</text>

  <ellipse cx="1360" cy="1180" rx="125" ry="34" class="main-usecase"/>
  <text x="1360" y="1186" text-anchor="middle" class="label">View Audit Logs</text>

  <!-- Solid actor associations -->
  <path d="M150 560 C250 300, 330 210, 315 188" class="assoc"/>
  <path d="M150 560 C250 360, 330 300, 300 290" class="assoc"/>
  <path d="M150 560 C250 430, 330 400, 285 395" class="assoc"/>
  <path d="M150 560 C250 500, 330 500, 270 505" class="assoc"/>
  <path d="M150 560 C250 590, 330 610, 285 615" class="assoc"/>
  <path d="M150 560 C250 680, 330 715, 280 725" class="assoc"/>
  <path d="M150 560 C250 790, 330 825, 285 835" class="assoc"/>
  <path d="M150 560 C250 900, 330 935, 260 945" class="assoc"/>
  <path d="M150 560 C250 1015, 330 1045, 248 1055" class="assoc"/>
  <path d="M150 560 C250 1130, 330 1155, 285 1165" class="assoc"/>

  <path d="M1650 560 C1560 300, 1480 210, 1485 188" class="assoc"/>
  <path d="M1650 560 C1560 360, 1480 300, 1530 300" class="assoc"/>
  <path d="M1650 560 C1560 430, 1480 400, 1525 410" class="assoc"/>
  <path d="M1650 560 C1560 500, 1480 515, 1515 520" class="assoc"/>
  <path d="M1650 560 C1560 590, 1480 620, 1510 630" class="assoc"/>
  <path d="M1650 560 C1560 700, 1480 730, 1560 740" class="assoc"/>
  <path d="M1650 560 C1560 830, 1480 845, 1548 850" class="assoc"/>
  <path d="M1650 560 C1560 945, 1480 955, 1548 960" class="assoc"/>
  <path d="M1650 560 C1560 1055, 1480 1065, 1535 1070" class="assoc"/>
  <path d="M1650 560 C1560 1170, 1480 1178, 1485 1180" class="assoc"/>

  <!-- Include relationships from organization user use cases -->
  <path d="M555 180 H780 H785" class="include" marker-end="url(#arrow-black)"/>
  <text x="655" y="170" class="small">&lt;&lt;include&gt;&gt;</text>

  <path d="M592 395 H730 V470 H768" class="include" marker-end="url(#arrow-black)"/>
  <text x="655" y="386" class="small">&lt;&lt;include&gt;&gt;</text>

  <path d="M590 505 H730 V485 H768" class="include" marker-end="url(#arrow-black)"/>
  <text x="650" y="536" class="small">&lt;&lt;include&gt;&gt;</text>

  <path d="M575 615 H730 V500 H768" class="include" marker-end="url(#arrow-black)"/>
  <text x="640" y="584" class="small">&lt;&lt;include&gt;&gt;</text>

  <path d="M585 725 H730 V515 H768" class="include" marker-end="url(#arrow-black)"/>
  <text x="645" y="690" class="small">&lt;&lt;include&gt;&gt;</text>

  <!-- Include relationships from admin use cases -->
  <path d="M1215 180 H1020 H1015" class="include" marker-end="url(#arrow-black)"/>
  <text x="1080" y="170" class="small">&lt;&lt;include&gt;&gt;</text>

  <path d="M1190 300 H1110 V760 H1020" class="include" marker-end="url(#arrow-black)"/>
  <text x="1118" y="410" class="small">&lt;&lt;include&gt;&gt;</text>

  <path d="M1195 410 H1130 V775 H1020" class="include" marker-end="url(#arrow-black)"/>
  <text x="1138" y="520" class="small">&lt;&lt;include&gt;&gt;</text>

  <path d="M1205 520 H1145 V790 H1020" class="include" marker-end="url(#arrow-black)"/>
  <text x="1152" y="636" class="small">&lt;&lt;include&gt;&gt;</text>

  <path d="M1195 630 H1135 V805 H1020" class="include" marker-end="url(#arrow-black)"/>
  <text x="1142" y="724" class="small">&lt;&lt;include&gt;&gt;</text>

  <path d="M1172 850 H1120 V820 H1020" class="include" marker-end="url(#arrow-black)"/>
  <text x="1080" y="842" class="small">&lt;&lt;include&gt;&gt;</text>

  <path d="M1185 1070 H1040 V1060 H1012" class="include" marker-end="url(#arrow-black)"/>
  <text x="1075" y="1050" class="small">&lt;&lt;include&gt;&gt;</text>
</svg>
